<mxfile host="app.diagrams.net" agent="Mozilla/5.0 (Windows NT 10.0; Win64; x64) AppleWebKit/537.36 (KHTML, like Gecko) Chrome/140.0.0.0 Safari/537.36" version="28.1.1">
  <diagram name="Page-1" id="0S_-E7oheLRWESoEfpNg">
    <mxGraphModel dx="3041" dy="1249" grid="1" gridSize="10" guides="1" tooltips="1" connect="1" arrows="1" fold="1" page="1" pageScale="1" pageWidth="827" pageHeight="1169" math="0" shadow="0">
      <root>
        <mxCell id="0" />
        <mxCell id="1" parent="0" />
        <mxCell id="BlTQEWm7-lqljA3Dq1Z--1" value="&lt;div style=&quot;color: rgb(212, 212, 212); background-color: rgb(30, 30, 30); font-family: var(--code-font), Consolas, &#39;Courier New&#39;, monospace; font-size: 14px; line-height: 19px; white-space: pre;&quot;&gt;&lt;span style=&quot;color: #3dc9b0;&quot;&gt;CreateType&amp;lt;&lt;/span&gt;&lt;span style=&quot;font-family: var(--code-font), Consolas, &#39;Courier New&#39;, monospace; color: rgb(206, 145, 120);&quot;&gt;&#39;red&#39;&lt;/span&gt;&lt;span style=&quot;font-family: var(--code-font), Consolas, &#39;Courier New&#39;, monospace;&quot;&gt; &lt;/span&gt;&lt;span style=&quot;font-family: var(--code-font), Consolas, &#39;Courier New&#39;, monospace; color: rgb(220, 220, 220);&quot;&gt;|&lt;/span&gt;&lt;span style=&quot;font-family: var(--code-font), Consolas, &#39;Courier New&#39;, monospace;&quot;&gt; &lt;/span&gt;&lt;span style=&quot;font-family: var(--code-font), Consolas, &#39;Courier New&#39;, monospace; color: rgb(206, 145, 120);&quot;&gt;&#39;green&#39;&lt;/span&gt;&lt;span style=&quot;color: rgb(61, 201, 176); font-family: var(--code-font), Consolas, &#39;Courier New&#39;, monospace;&quot;&gt;&amp;gt;&lt;/span&gt;&lt;/div&gt;" style="rounded=0;whiteSpace=wrap;html=1;fillColor=#60a917;fontColor=#ffffff;strokeColor=#2D7600;" vertex="1" parent="1">
          <mxGeometry x="80" y="120" width="200" height="80" as="geometry" />
        </mxCell>
        <mxCell id="BlTQEWm7-lqljA3Dq1Z--2" value="&lt;div style=&quot;color: rgb(212, 212, 212); background-color: rgb(30, 30, 30); font-family: var(--code-font), Consolas, &#39;Courier New&#39;, monospace; font-size: 14px; line-height: 19px; white-space: pre;&quot;&gt;&lt;div style=&quot;color: rgb(212, 212, 212); background-color: rgb(30, 30, 30); font-family: var(--code-font), Consolas, &#39;Courier New&#39;, monospace; line-height: 19px;&quot;&gt;&lt;div&gt;&lt;span style=&quot;color: rgb(86, 156, 214);&quot;&gt;type&lt;/span&gt; &lt;span style=&quot;color: rgb(61, 201, 176);&quot;&gt;CreateType&lt;/span&gt;&lt;span style=&quot;color: rgb(220, 220, 220);&quot;&gt;&amp;lt;&lt;/span&gt;&lt;span style=&quot;color: rgb(61, 201, 176);&quot;&gt;T&lt;/span&gt; &lt;span style=&quot;color: rgb(86, 156, 214);&quot;&gt;extends&lt;/span&gt; &lt;span style=&quot;color: rgb(61, 201, 176);&quot;&gt;RecursiveObject&lt;/span&gt;&lt;span style=&quot;color: rgb(220, 220, 220);&quot;&gt;&amp;gt;&lt;/span&gt; &lt;span style=&quot;color: rgb(220, 220, 220);&quot;&gt;=&lt;/span&gt; &lt;span style=&quot;color: rgb(220, 220, 220);&quot;&gt;{&lt;/span&gt;&lt;/div&gt;&lt;div style=&quot;text-align: left;&quot;&gt;&amp;nbsp; &lt;span style=&quot;color: rgb(220, 220, 220);&quot;&gt;[&lt;/span&gt;key &lt;span style=&quot;color: rgb(86, 156, 214);&quot;&gt;in&lt;/span&gt; &lt;span style=&quot;color: rgb(86, 156, 214);&quot;&gt;keyof&lt;/span&gt; &lt;span style=&quot;color: rgb(61, 201, 176);&quot;&gt;T&lt;/span&gt;&lt;span style=&quot;color: rgb(220, 220, 220);&quot;&gt;]&lt;/span&gt;-?: stringTypeOf&lt;span style=&quot;color: rgb(220, 220, 220);&quot;&gt;&amp;lt;&lt;/span&gt;&lt;span style=&quot;color: rgb(61, 201, 176);&quot;&gt;T&lt;/span&gt;&lt;span style=&quot;color: rgb(220, 220, 220);&quot;&gt;[&lt;/span&gt;key&lt;span style=&quot;color: rgb(220, 220, 220);&quot;&gt;]&amp;gt;&lt;/span&gt;&lt;/div&gt;&lt;div style=&quot;text-align: left;&quot;&gt;&lt;span style=&quot;color: light-dark(rgb(220, 220, 220), rgb(48, 48, 48)); background-color: light-dark(rgb(30, 30, 30), rgb(211, 211, 211)); font-family: var(--code-font), Consolas, &#39;Courier New&#39;, monospace; text-align: center;&quot;&gt;}&lt;/span&gt;&lt;/div&gt;&lt;/div&gt;&lt;/div&gt;" style="rounded=0;whiteSpace=wrap;html=1;fillColor=#60a917;fontColor=#ffffff;strokeColor=#2D7600;" vertex="1" parent="1">
          <mxGeometry x="80" y="240" width="360" height="120" as="geometry" />
        </mxCell>
        <mxCell id="BlTQEWm7-lqljA3Dq1Z--3" value="&lt;div style=&quot;color: rgb(212, 212, 212); background-color: rgb(30, 30, 30); font-family: var(--code-font), Consolas, &#39;Courier New&#39;, monospace; font-size: 14px; line-height: 19px; white-space: pre;&quot;&gt;&lt;div style=&quot;color: rgb(212, 212, 212); background-color: rgb(30, 30, 30); font-family: var(--code-font), Consolas, &#39;Courier New&#39;, monospace; line-height: 19px;&quot;&gt;&lt;div style=&quot;color: rgb(212, 212, 212); background-color: rgb(30, 30, 30); font-family: var(--code-font), Consolas, &#39;Courier New&#39;, monospace; line-height: 19px;&quot;&gt;&lt;div&gt;&lt;span style=&quot;color: rgb(86, 156, 214);&quot;&gt;type&lt;/span&gt; stringTypeOf&lt;span style=&quot;color: rgb(220, 220, 220);&quot;&gt;&amp;lt;&lt;/span&gt;&lt;span style=&quot;font-family: var(--code-font), Consolas, &#39;Courier New&#39;, monospace; color: rgb(206, 145, 120);&quot;&gt;&#39;red&#39;&lt;/span&gt;&lt;span style=&quot;background-color: rgb(30, 30, 30); color: rgb(212, 212, 212); font-family: var(--code-font), Consolas, &#39;Courier New&#39;, monospace;&quot;&gt; &lt;/span&gt;&lt;span style=&quot;font-family: var(--code-font), Consolas, &#39;Courier New&#39;, monospace; color: rgb(220, 220, 220);&quot;&gt;|&lt;/span&gt;&lt;span style=&quot;background-color: rgb(30, 30, 30); color: rgb(212, 212, 212); font-family: var(--code-font), Consolas, &#39;Courier New&#39;, monospace;&quot;&gt; &lt;/span&gt;&lt;span style=&quot;font-family: var(--code-font), Consolas, &#39;Courier New&#39;, monospace; color: rgb(206, 145, 120);&quot;&gt;&#39;green&#39;&lt;/span&gt;&lt;span style=&quot;background-color: light-dark(rgb(30, 30, 30), rgb(211, 211, 211)); font-family: var(--code-font), Consolas, &#39;Courier New&#39;, monospace; color: rgb(220, 220, 220);&quot;&gt;&amp;gt;&lt;/span&gt;&lt;span style=&quot;background-color: light-dark(rgb(30, 30, 30), rgb(211, 211, 211)); color: light-dark(rgb(212, 212, 212), rgb(55, 55, 55)); font-family: var(--code-font), Consolas, &#39;Courier New&#39;, monospace;&quot;&gt; &lt;/span&gt;&lt;span style=&quot;background-color: light-dark(rgb(30, 30, 30), rgb(211, 211, 211)); font-family: var(--code-font), Consolas, &#39;Courier New&#39;, monospace; color: rgb(220, 220, 220);&quot;&gt;=&lt;/span&gt;&lt;span style=&quot;background-color: light-dark(rgb(30, 30, 30), rgb(211, 211, 211)); color: light-dark(rgb(212, 212, 212), rgb(55, 55, 55)); font-family: var(--code-font), Consolas, &#39;Courier New&#39;, monospace;&quot;&gt; &lt;/span&gt;&lt;span style=&quot;background-color: light-dark(rgb(30, 30, 30), rgb(211, 211, 211)); font-family: var(--code-font), Consolas, &#39;Courier New&#39;, monospace; color: rgb(61, 201, 176);&quot;&gt;IsUnion&lt;/span&gt;&lt;span style=&quot;background-color: light-dark(rgb(30, 30, 30), rgb(211, 211, 211)); font-family: var(--code-font), Consolas, &#39;Courier New&#39;, monospace; color: rgb(220, 220, 220);&quot;&gt;&amp;lt;&lt;/span&gt;&lt;span style=&quot;background-color: light-dark(rgb(30, 30, 30), rgb(211, 211, 211)); font-family: var(--code-font), Consolas, &#39;Courier New&#39;, monospace; color: rgb(61, 201, 176);&quot;&gt;T&lt;/span&gt;&lt;span style=&quot;background-color: light-dark(rgb(30, 30, 30), rgb(211, 211, 211)); font-family: var(--code-font), Consolas, &#39;Courier New&#39;, monospace; color: rgb(220, 220, 220);&quot;&gt;&amp;gt;&lt;/span&gt;&lt;span style=&quot;background-color: light-dark(rgb(30, 30, 30), rgb(211, 211, 211)); color: light-dark(rgb(212, 212, 212), rgb(55, 55, 55)); font-family: var(--code-font), Consolas, &#39;Courier New&#39;, monospace;&quot;&gt; &lt;/span&gt;&lt;span style=&quot;background-color: light-dark(rgb(30, 30, 30), rgb(211, 211, 211)); font-family: var(--code-font), Consolas, &#39;Courier New&#39;, monospace; color: rgb(86, 156, 214);&quot;&gt;extends&lt;/span&gt;&lt;span style=&quot;background-color: light-dark(rgb(30, 30, 30), rgb(211, 211, 211)); color: light-dark(rgb(212, 212, 212), rgb(55, 55, 55)); font-family: var(--code-font), Consolas, &#39;Courier New&#39;, monospace;&quot;&gt; &lt;/span&gt;&lt;span style=&quot;background-color: light-dark(rgb(30, 30, 30), rgb(211, 211, 211)); font-family: var(--code-font), Consolas, &#39;Courier New&#39;, monospace; color: rgb(86, 156, 214);&quot;&gt;true&lt;/span&gt;&lt;/div&gt;&lt;div&gt;&amp;nbsp; &lt;span style=&quot;color: rgb(220, 220, 220);&quot;&gt;?&lt;/span&gt; &lt;span style=&quot;color: rgb(61, 201, 176);&quot;&gt;UnionTostringTypeOf&lt;/span&gt;&lt;span style=&quot;color: rgb(220, 220, 220);&quot;&gt;&amp;lt;&lt;/span&gt;&lt;span style=&quot;color: rgb(61, 201, 176);&quot;&gt;T&lt;/span&gt;&lt;span style=&quot;color: rgb(220, 220, 220);&quot;&gt;&amp;gt;&lt;/span&gt;&lt;/div&gt;&lt;div&gt;&amp;nbsp; &lt;span style=&quot;color: rgb(220, 220, 220);&quot;&gt;:&lt;/span&gt; &lt;span style=&quot;color: rgb(61, 201, 176);&quot;&gt;IsNonEmptyTuple&lt;/span&gt;&lt;span style=&quot;color: rgb(220, 220, 220);&quot;&gt;&amp;lt;&lt;/span&gt;&lt;span style=&quot;color: rgb(61, 201, 176);&quot;&gt;T&lt;/span&gt;&lt;span style=&quot;color: rgb(220, 220, 220);&quot;&gt;&amp;gt;&lt;/span&gt; &lt;span style=&quot;color: rgb(86, 156, 214);&quot;&gt;extends&lt;/span&gt; &lt;span style=&quot;color: rgb(86, 156, 214);&quot;&gt;true&lt;/span&gt;&lt;/div&gt;&lt;div&gt;&amp;nbsp; &lt;span style=&quot;color: rgb(220, 220, 220);&quot;&gt;?&lt;/span&gt; &lt;span style=&quot;color: rgb(61, 201, 176);&quot;&gt;TupleToTypeOfStringTypeOf&lt;/span&gt;&lt;span style=&quot;color: rgb(220, 220, 220);&quot;&gt;&amp;lt;&lt;/span&gt;&lt;span style=&quot;color: rgb(61, 201, 176);&quot;&gt;T&lt;/span&gt;&lt;span style=&quot;color: rgb(220, 220, 220);&quot;&gt;&amp;gt;&lt;/span&gt;&lt;/div&gt;&lt;div&gt;&amp;nbsp; &lt;span style=&quot;color: rgb(220, 220, 220);&quot;&gt;:&lt;/span&gt; &lt;span style=&quot;color: rgb(61, 201, 176);&quot;&gt;T&lt;/span&gt; &lt;span style=&quot;color: rgb(86, 156, 214);&quot;&gt;extends&lt;/span&gt; &lt;span style=&quot;color: rgb(86, 156, 214);&quot;&gt;undefined&lt;/span&gt;&lt;/div&gt;&lt;div&gt;&amp;nbsp; &lt;span style=&quot;color: rgb(220, 220, 220);&quot;&gt;?&lt;/span&gt; &lt;span style=&quot;color: rgb(61, 201, 176);&quot;&gt;Extract&lt;/span&gt;&lt;span style=&quot;color: rgb(220, 220, 220);&quot;&gt;&amp;lt;&lt;/span&gt;typeOfReturn&lt;span style=&quot;color: rgb(220, 220, 220);&quot;&gt;,&lt;/span&gt; &lt;span style=&quot;color: rgb(206, 145, 120);&quot;&gt;&#39;undefined&#39;&lt;/span&gt;&lt;span style=&quot;color: rgb(220, 220, 220);&quot;&gt;&amp;gt;&lt;/span&gt;&lt;/div&gt;&lt;div&gt;&amp;nbsp; &lt;span style=&quot;color: rgb(220, 220, 220);&quot;&gt;:&lt;/span&gt; &lt;span style=&quot;color: rgb(61, 201, 176);&quot;&gt;T&lt;/span&gt; &lt;span style=&quot;color: rgb(86, 156, 214);&quot;&gt;extends&lt;/span&gt; &lt;span style=&quot;color: rgb(86, 156, 214);&quot;&gt;string&lt;/span&gt;&lt;/div&gt;&lt;div&gt;&amp;nbsp; &lt;span style=&quot;color: rgb(220, 220, 220);&quot;&gt;?&lt;/span&gt; &lt;span style=&quot;color: rgb(61, 201, 176);&quot;&gt;StringTostringTypeOf&lt;/span&gt;&lt;span style=&quot;color: rgb(220, 220, 220);&quot;&gt;&amp;lt;&lt;/span&gt;&lt;span style=&quot;color: rgb(61, 201, 176);&quot;&gt;T&lt;/span&gt;&lt;span style=&quot;color: rgb(220, 220, 220);&quot;&gt;&amp;gt;&lt;/span&gt;&lt;/div&gt;&lt;div&gt;&amp;nbsp; &lt;span style=&quot;color: rgb(220, 220, 220);&quot;&gt;:&lt;/span&gt; &lt;span style=&quot;color: rgb(61, 201, 176);&quot;&gt;T&lt;/span&gt; &lt;span style=&quot;color: rgb(86, 156, 214);&quot;&gt;extends&lt;/span&gt; &lt;span style=&quot;color: rgb(86, 156, 214);&quot;&gt;number&lt;/span&gt;&lt;/div&gt;&lt;div&gt;&amp;nbsp; &lt;span style=&quot;color: rgb(220, 220, 220);&quot;&gt;?&lt;/span&gt; &lt;span style=&quot;color: rgb(61, 201, 176);&quot;&gt;NumberTostringTypeOf&lt;/span&gt;&lt;span style=&quot;color: rgb(220, 220, 220);&quot;&gt;&amp;lt;&lt;/span&gt;&lt;span style=&quot;color: rgb(61, 201, 176);&quot;&gt;T&lt;/span&gt;&lt;span style=&quot;color: rgb(220, 220, 220);&quot;&gt;&amp;gt;&lt;/span&gt;&lt;/div&gt;&lt;div&gt;&amp;nbsp; &lt;span style=&quot;color: rgb(220, 220, 220);&quot;&gt;:&lt;/span&gt; &lt;span style=&quot;color: rgb(61, 201, 176);&quot;&gt;T&lt;/span&gt; &lt;span style=&quot;color: rgb(86, 156, 214);&quot;&gt;extends&lt;/span&gt; &lt;span style=&quot;color: rgb(220, 220, 220);&quot;&gt;(...&lt;/span&gt;args&lt;span style=&quot;color: rgb(220, 220, 220);&quot;&gt;:&lt;/span&gt; &lt;span style=&quot;color: rgb(86, 156, 214);&quot;&gt;unknown&lt;/span&gt;&lt;span style=&quot;color: rgb(220, 220, 220);&quot;&gt;[])&lt;/span&gt; &lt;span style=&quot;color: rgb(220, 220, 220);&quot;&gt;=&amp;gt;&lt;/span&gt; &lt;span style=&quot;color: rgb(86, 156, 214);&quot;&gt;unknown&lt;/span&gt;&lt;/div&gt;&lt;div&gt;&amp;nbsp; &lt;span style=&quot;color: rgb(220, 220, 220);&quot;&gt;?&lt;/span&gt; &lt;span style=&quot;color: rgb(61, 201, 176);&quot;&gt;Extract&lt;/span&gt;&lt;span style=&quot;color: rgb(220, 220, 220);&quot;&gt;&amp;lt;&lt;/span&gt;typeOfReturn&lt;span style=&quot;color: rgb(220, 220, 220);&quot;&gt;,&lt;/span&gt; &lt;span style=&quot;color: rgb(206, 145, 120);&quot;&gt;&#39;function&#39;&lt;/span&gt;&lt;span style=&quot;color: rgb(220, 220, 220);&quot;&gt;&amp;gt;&lt;/span&gt;&lt;/div&gt;&lt;div&gt;&amp;nbsp; &lt;span style=&quot;color: rgb(220, 220, 220);&quot;&gt;:&lt;/span&gt; &lt;span style=&quot;color: rgb(61, 201, 176);&quot;&gt;T&lt;/span&gt; &lt;span style=&quot;color: rgb(86, 156, 214);&quot;&gt;extends&lt;/span&gt; &lt;span style=&quot;color: rgb(86, 156, 214);&quot;&gt;boolean&lt;/span&gt;&lt;/div&gt;&lt;div&gt;&amp;nbsp; &lt;span style=&quot;color: rgb(220, 220, 220);&quot;&gt;?&lt;/span&gt; &lt;span style=&quot;color: rgb(61, 201, 176);&quot;&gt;Extract&lt;/span&gt;&lt;span style=&quot;color: rgb(220, 220, 220);&quot;&gt;&amp;lt;&lt;/span&gt;typeOfReturn&lt;span style=&quot;color: rgb(220, 220, 220);&quot;&gt;,&lt;/span&gt; &lt;span style=&quot;color: rgb(206, 145, 120);&quot;&gt;&#39;boolean&#39;&lt;/span&gt;&lt;span style=&quot;color: rgb(220, 220, 220);&quot;&gt;&amp;gt;&lt;/span&gt;&lt;/div&gt;&lt;div&gt;&amp;nbsp; &lt;span style=&quot;color: rgb(220, 220, 220);&quot;&gt;:&lt;/span&gt; &lt;span style=&quot;color: rgb(61, 201, 176);&quot;&gt;T&lt;/span&gt; &lt;span style=&quot;color: rgb(86, 156, 214);&quot;&gt;extends&lt;/span&gt; &lt;span style=&quot;color: rgb(86, 156, 214);&quot;&gt;bigint&lt;/span&gt;&lt;/div&gt;&lt;div&gt;&amp;nbsp; &lt;span style=&quot;color: rgb(220, 220, 220);&quot;&gt;?&lt;/span&gt; &lt;span style=&quot;color: rgb(61, 201, 176);&quot;&gt;Extract&lt;/span&gt;&lt;span style=&quot;color: rgb(220, 220, 220);&quot;&gt;&amp;lt;&lt;/span&gt;typeOfReturn&lt;span style=&quot;color: rgb(220, 220, 220);&quot;&gt;,&lt;/span&gt; &lt;span style=&quot;color: rgb(206, 145, 120);&quot;&gt;&#39;bigint&#39;&lt;/span&gt;&lt;span style=&quot;color: rgb(220, 220, 220);&quot;&gt;&amp;gt;&lt;/span&gt;&lt;/div&gt;&lt;div&gt;&amp;nbsp; &lt;span style=&quot;color: rgb(220, 220, 220);&quot;&gt;:&lt;/span&gt; &lt;span style=&quot;color: rgb(61, 201, 176);&quot;&gt;T&lt;/span&gt; &lt;span style=&quot;color: rgb(86, 156, 214);&quot;&gt;extends&lt;/span&gt; &lt;span style=&quot;color: rgb(86, 156, 214);&quot;&gt;symbol&lt;/span&gt;&lt;/div&gt;&lt;div&gt;&amp;nbsp; &lt;span style=&quot;color: rgb(220, 220, 220);&quot;&gt;?&lt;/span&gt; &lt;span style=&quot;color: rgb(61, 201, 176);&quot;&gt;Extract&lt;/span&gt;&lt;span style=&quot;color: rgb(220, 220, 220);&quot;&gt;&amp;lt;&lt;/span&gt;typeOfReturn&lt;span style=&quot;color: rgb(220, 220, 220);&quot;&gt;,&lt;/span&gt; &lt;span style=&quot;color: rgb(206, 145, 120);&quot;&gt;&#39;symbol&#39;&lt;/span&gt;&lt;span style=&quot;color: rgb(220, 220, 220);&quot;&gt;&amp;gt;&lt;/span&gt;&lt;/div&gt;&lt;div&gt;&amp;nbsp; &lt;span style=&quot;color: rgb(220, 220, 220);&quot;&gt;:&lt;/span&gt; &lt;span style=&quot;color: rgb(61, 201, 176);&quot;&gt;T&lt;/span&gt; &lt;span style=&quot;color: rgb(86, 156, 214);&quot;&gt;extends&lt;/span&gt; &lt;span style=&quot;color: rgb(61, 201, 176);&quot;&gt;RecursiveObject&lt;/span&gt;&lt;/div&gt;&lt;div&gt;&amp;nbsp; &lt;span style=&quot;color: rgb(220, 220, 220);&quot;&gt;?&lt;/span&gt; &lt;span style=&quot;color: rgb(61, 201, 176);&quot;&gt;CreateType&lt;/span&gt;&lt;span style=&quot;color: rgb(220, 220, 220);&quot;&gt;&amp;lt;&lt;/span&gt;&lt;span style=&quot;color: rgb(61, 201, 176);&quot;&gt;T&lt;/span&gt;&lt;span style=&quot;color: rgb(220, 220, 220);&quot;&gt;&amp;gt;&lt;/span&gt;&lt;/div&gt;&lt;div&gt;&amp;nbsp; &lt;span style=&quot;color: rgb(220, 220, 220);&quot;&gt;:&lt;/span&gt; &lt;span style=&quot;color: rgb(61, 201, 176);&quot;&gt;IsArray&lt;/span&gt;&lt;span style=&quot;color: rgb(220, 220, 220);&quot;&gt;&amp;lt;&lt;/span&gt;&lt;span style=&quot;color: rgb(61, 201, 176);&quot;&gt;T&lt;/span&gt;&lt;span style=&quot;color: rgb(220, 220, 220);&quot;&gt;&amp;gt;&lt;/span&gt; &lt;span style=&quot;color: rgb(86, 156, 214);&quot;&gt;extends&lt;/span&gt; &lt;span style=&quot;color: rgb(86, 156, 214);&quot;&gt;true&lt;/span&gt;&lt;/div&gt;&lt;div&gt;&amp;nbsp; &lt;span style=&quot;color: rgb(220, 220, 220);&quot;&gt;?&lt;/span&gt; &lt;span style=&quot;color: rgb(61, 201, 176);&quot;&gt;ArrayToStringTypeOf&lt;/span&gt;&lt;span style=&quot;color: rgb(220, 220, 220);&quot;&gt;&amp;lt;&lt;/span&gt;&lt;span style=&quot;color: rgb(61, 201, 176);&quot;&gt;T&lt;/span&gt;&lt;span style=&quot;color: rgb(220, 220, 220);&quot;&gt;&amp;gt;&lt;/span&gt;&lt;/div&gt;&lt;div&gt;&amp;nbsp; &lt;span style=&quot;color: rgb(220, 220, 220);&quot;&gt;:&lt;/span&gt; &lt;span style=&quot;color: rgb(61, 201, 176);&quot;&gt;Extract&lt;/span&gt;&lt;span style=&quot;color: rgb(220, 220, 220);&quot;&gt;&amp;lt;&lt;/span&gt;typeOfReturn&lt;span style=&quot;color: rgb(220, 220, 220);&quot;&gt;,&lt;/span&gt; &lt;span style=&quot;color: rgb(206, 145, 120);&quot;&gt;&#39;string&#39;&lt;/span&gt;&lt;span style=&quot;color: rgb(220, 220, 220);&quot;&gt;&amp;gt;&lt;/span&gt;&lt;/div&gt;&lt;/div&gt;&lt;/div&gt;&lt;/div&gt;" style="rounded=0;whiteSpace=wrap;html=1;fillColor=#60a917;fontColor=#ffffff;strokeColor=#2D7600;align=left;" vertex="1" parent="1">
          <mxGeometry x="80" y="400" width="420" height="520" as="geometry" />
        </mxCell>
        <mxCell id="BlTQEWm7-lqljA3Dq1Z--4" value="&lt;div style=&quot;color: rgb(212, 212, 212); background-color: rgb(30, 30, 30); font-family: var(--code-font), Consolas, &#39;Courier New&#39;, monospace; font-size: 14px; line-height: 19px; white-space: pre;&quot;&gt;&lt;div style=&quot;color: rgb(212, 212, 212); background-color: rgb(30, 30, 30); font-family: var(--code-font), Consolas, &#39;Courier New&#39;, monospace; line-height: 19px;&quot;&gt;&lt;span style=&quot;text-align: left; color: rgb(61, 201, 176);&quot;&gt;UnionTostringTypeOf&lt;/span&gt;&lt;span style=&quot;text-align: left; color: rgb(220, 220, 220);&quot;&gt;&amp;lt;&lt;/span&gt;&lt;span style=&quot;font-family: var(--code-font), Consolas, &#39;Courier New&#39;, monospace; text-align: left; color: rgb(206, 145, 120);&quot;&gt;&#39;red&#39;&lt;/span&gt;&lt;span style=&quot;background-color: rgb(30, 30, 30); color: rgb(212, 212, 212); font-family: var(--code-font), Consolas, &#39;Courier New&#39;, monospace; text-align: left;&quot;&gt; &lt;/span&gt;&lt;span style=&quot;font-family: var(--code-font), Consolas, &#39;Courier New&#39;, monospace; text-align: left; color: rgb(220, 220, 220);&quot;&gt;|&lt;/span&gt;&lt;span style=&quot;background-color: rgb(30, 30, 30); color: rgb(212, 212, 212); font-family: var(--code-font), Consolas, &#39;Courier New&#39;, monospace; text-align: left;&quot;&gt; &lt;/span&gt;&lt;span style=&quot;font-family: var(--code-font), Consolas, &#39;Courier New&#39;, monospace; text-align: left; color: rgb(206, 145, 120);&quot;&gt;&#39;green&#39;&lt;/span&gt;&lt;span style=&quot;color: light-dark(rgb(220, 220, 220), rgb(48, 48, 48)); text-align: left; background-color: light-dark(rgb(30, 30, 30), rgb(211, 211, 211)); font-family: var(--code-font), Consolas, &#39;Courier New&#39;, monospace;&quot;&gt;&amp;gt;&lt;/span&gt;&lt;/div&gt;&lt;/div&gt;" style="rounded=0;whiteSpace=wrap;html=1;fillColor=#60a917;fontColor=#ffffff;strokeColor=#2D7600;" vertex="1" parent="1">
          <mxGeometry x="80" y="960" width="300" height="80" as="geometry" />
        </mxCell>
        <mxCell id="BlTQEWm7-lqljA3Dq1Z--5" value="&lt;div style=&quot;color: rgb(212, 212, 212); background-color: rgb(30, 30, 30); font-family: var(--code-font), Consolas, &#39;Courier New&#39;, monospace; font-size: 14px; line-height: 19px; white-space: pre;&quot;&gt;&lt;div style=&quot;color: rgb(212, 212, 212); background-color: rgb(30, 30, 30); font-family: var(--code-font), Consolas, &#39;Courier New&#39;, monospace; line-height: 19px;&quot;&gt;&lt;div style=&quot;color: rgb(212, 212, 212); background-color: rgb(30, 30, 30); font-family: var(--code-font), Consolas, &#39;Courier New&#39;, monospace; line-height: 19px;&quot;&gt;&lt;span style=&quot;color: rgb(86, 156, 214);&quot;&gt;type&lt;/span&gt; &lt;span style=&quot;color: rgb(61, 201, 176);&quot;&gt;UnionTostringTypeOf&lt;/span&gt;&lt;span style=&quot;color: rgb(220, 220, 220);&quot;&gt;&amp;lt;&lt;/span&gt;&lt;span style=&quot;font-family: var(--code-font), Consolas, &#39;Courier New&#39;, monospace; text-align: left; color: rgb(206, 145, 120);&quot;&gt;&#39;red&#39;&lt;/span&gt;&lt;span style=&quot;background-color: rgb(30, 30, 30); color: rgb(212, 212, 212); font-family: var(--code-font), Consolas, &#39;Courier New&#39;, monospace; text-align: left;&quot;&gt; &lt;/span&gt;&lt;span style=&quot;font-family: var(--code-font), Consolas, &#39;Courier New&#39;, monospace; text-align: left; color: rgb(220, 220, 220);&quot;&gt;|&lt;/span&gt;&lt;span style=&quot;background-color: rgb(30, 30, 30); color: rgb(212, 212, 212); font-family: var(--code-font), Consolas, &#39;Courier New&#39;, monospace; text-align: left;&quot;&gt; &lt;/span&gt;&lt;span style=&quot;font-family: var(--code-font), Consolas, &#39;Courier New&#39;, monospace; text-align: left; color: rgb(206, 145, 120);&quot;&gt;&#39;green&#39;&lt;/span&gt;&lt;span style=&quot;font-family: var(--code-font), Consolas, &#39;Courier New&#39;, monospace; color: rgb(220, 220, 220);&quot;&gt;&amp;gt;&lt;/span&gt;&lt;span style=&quot;background-color: light-dark(rgb(30, 30, 30), rgb(211, 211, 211)); color: light-dark(rgb(212, 212, 212), rgb(55, 55, 55)); font-family: var(--code-font), Consolas, &#39;Courier New&#39;, monospace;&quot;&gt; &lt;/span&gt;&lt;span style=&quot;font-family: var(--code-font), Consolas, &#39;Courier New&#39;, monospace; color: rgb(220, 220, 220);&quot;&gt;=&lt;/span&gt;&lt;span style=&quot;background-color: light-dark(rgb(30, 30, 30), rgb(211, 211, 211)); color: light-dark(rgb(212, 212, 212), rgb(55, 55, 55)); font-family: var(--code-font), Consolas, &#39;Courier New&#39;, monospace;&quot;&gt; &lt;/span&gt;&lt;span style=&quot;font-family: var(--code-font), Consolas, &#39;Courier New&#39;, monospace; color: rgb(61, 201, 176);&quot;&gt;TupleToTypeOfStringTypeOf&lt;/span&gt;&lt;span style=&quot;font-family: var(--code-font), Consolas, &#39;Courier New&#39;, monospace; color: rgb(220, 220, 220);&quot;&gt;&amp;lt;&lt;/span&gt;&lt;span style=&quot;font-family: var(--code-font), Consolas, &#39;Courier New&#39;, monospace; color: rgb(61, 201, 176);&quot;&gt;UnionToTuple&lt;/span&gt;&lt;span style=&quot;font-family: var(--code-font), Consolas, &#39;Courier New&#39;, monospace; color: rgb(220, 220, 220);&quot;&gt;&amp;lt;&lt;/span&gt;&lt;span style=&quot;font-family: var(--code-font), Consolas, &#39;Courier New&#39;, monospace; text-align: left; color: rgb(206, 145, 120);&quot;&gt;&#39;red&#39;&lt;/span&gt;&lt;span style=&quot;background-color: rgb(30, 30, 30); color: rgb(212, 212, 212); font-family: var(--code-font), Consolas, &#39;Courier New&#39;, monospace; text-align: left;&quot;&gt; &lt;/span&gt;&lt;span style=&quot;font-family: var(--code-font), Consolas, &#39;Courier New&#39;, monospace; text-align: left; color: rgb(220, 220, 220);&quot;&gt;|&lt;/span&gt;&lt;span style=&quot;background-color: rgb(30, 30, 30); color: rgb(212, 212, 212); font-family: var(--code-font), Consolas, &#39;Courier New&#39;, monospace; text-align: left;&quot;&gt; &lt;/span&gt;&lt;span style=&quot;font-family: var(--code-font), Consolas, &#39;Courier New&#39;, monospace; text-align: left; color: rgb(206, 145, 120);&quot;&gt;&#39;green&#39;&lt;/span&gt;&lt;span style=&quot;color: light-dark(rgb(220, 220, 220), rgb(48, 48, 48)); font-family: var(--code-font), Consolas, &#39;Courier New&#39;, monospace; background-color: light-dark(rgb(30, 30, 30), rgb(211, 211, 211));&quot;&gt;&amp;gt;&amp;gt;&lt;/span&gt;&lt;/div&gt;&lt;/div&gt;&lt;/div&gt;" style="rounded=0;whiteSpace=wrap;html=1;fillColor=#60a917;fontColor=#ffffff;strokeColor=#2D7600;" vertex="1" parent="1">
          <mxGeometry x="80" y="1080" width="720" height="80" as="geometry" />
        </mxCell>
        <mxCell id="BlTQEWm7-lqljA3Dq1Z--6" value="&lt;div style=&quot;color: rgb(212, 212, 212); background-color: rgb(30, 30, 30); font-family: var(--code-font), Consolas, &#39;Courier New&#39;, monospace; font-size: 14px; line-height: 19px; white-space: pre;&quot;&gt;&lt;div style=&quot;color: rgb(212, 212, 212); background-color: rgb(30, 30, 30); font-family: var(--code-font), Consolas, &#39;Courier New&#39;, monospace; line-height: 19px;&quot;&gt;&lt;div style=&quot;color: rgb(212, 212, 212); background-color: rgb(30, 30, 30); font-family: var(--code-font), Consolas, &#39;Courier New&#39;, monospace; line-height: 19px;&quot;&gt;&lt;span style=&quot;color: rgb(86, 156, 214);&quot;&gt;type&lt;/span&gt; &lt;span style=&quot;color: rgb(61, 201, 176);&quot;&gt;UnionTostringTypeOf&lt;/span&gt;&lt;span style=&quot;color: rgb(220, 220, 220);&quot;&gt;&amp;lt;&lt;/span&gt;&lt;span style=&quot;font-family: var(--code-font), Consolas, &#39;Courier New&#39;, monospace; text-align: left; color: rgb(206, 145, 120);&quot;&gt;&#39;red&#39;&lt;/span&gt;&lt;span style=&quot;background-color: rgb(30, 30, 30); color: rgb(212, 212, 212); font-family: var(--code-font), Consolas, &#39;Courier New&#39;, monospace; text-align: left;&quot;&gt; &lt;/span&gt;&lt;span style=&quot;font-family: var(--code-font), Consolas, &#39;Courier New&#39;, monospace; text-align: left; color: rgb(220, 220, 220);&quot;&gt;|&lt;/span&gt;&lt;span style=&quot;background-color: rgb(30, 30, 30); color: rgb(212, 212, 212); font-family: var(--code-font), Consolas, &#39;Courier New&#39;, monospace; text-align: left;&quot;&gt; &lt;/span&gt;&lt;span style=&quot;font-family: var(--code-font), Consolas, &#39;Courier New&#39;, monospace; text-align: left; color: rgb(206, 145, 120);&quot;&gt;&#39;green&#39;&lt;/span&gt;&lt;span style=&quot;font-family: var(--code-font), Consolas, &#39;Courier New&#39;, monospace; color: rgb(220, 220, 220);&quot;&gt;&amp;gt;&lt;/span&gt;&lt;span style=&quot;background-color: light-dark(rgb(30, 30, 30), rgb(211, 211, 211)); color: light-dark(rgb(212, 212, 212), rgb(55, 55, 55)); font-family: var(--code-font), Consolas, &#39;Courier New&#39;, monospace;&quot;&gt; &lt;/span&gt;&lt;span style=&quot;font-family: var(--code-font), Consolas, &#39;Courier New&#39;, monospace; color: rgb(220, 220, 220);&quot;&gt;=&lt;/span&gt;&lt;span style=&quot;background-color: light-dark(rgb(30, 30, 30), rgb(211, 211, 211)); color: light-dark(rgb(212, 212, 212), rgb(55, 55, 55)); font-family: var(--code-font), Consolas, &#39;Courier New&#39;, monospace;&quot;&gt; &lt;/span&gt;&lt;span style=&quot;font-family: var(--code-font), Consolas, &#39;Courier New&#39;, monospace; color: rgb(61, 201, 176);&quot;&gt;TupleToTypeOfStringTypeOf&amp;lt;[&#39;red&#39;, &#39;green&#39;]&lt;/span&gt;&lt;span style=&quot;color: light-dark(rgb(220, 220, 220), rgb(48, 48, 48)); font-family: var(--code-font), Consolas, &#39;Courier New&#39;, monospace; background-color: light-dark(rgb(30, 30, 30), rgb(211, 211, 211));&quot;&gt;&amp;gt;&lt;/span&gt;&lt;/div&gt;&lt;/div&gt;&lt;/div&gt;" style="rounded=0;whiteSpace=wrap;html=1;fillColor=#60a917;fontColor=#ffffff;strokeColor=#2D7600;" vertex="1" parent="1">
          <mxGeometry x="80" y="1200" width="720" height="80" as="geometry" />
        </mxCell>
        <mxCell id="BlTQEWm7-lqljA3Dq1Z--7" value="&lt;div style=&quot;color: rgb(212, 212, 212); background-color: rgb(30, 30, 30); font-family: var(--code-font), Consolas, &#39;Courier New&#39;, monospace; font-size: 14px; line-height: 19px; white-space: pre;&quot;&gt;&lt;div style=&quot;color: rgb(212, 212, 212); background-color: rgb(30, 30, 30); font-family: var(--code-font), Consolas, &#39;Courier New&#39;, monospace; line-height: 19px;&quot;&gt;&lt;div style=&quot;color: rgb(212, 212, 212); background-color: rgb(30, 30, 30); font-family: var(--code-font), Consolas, &#39;Courier New&#39;, monospace; line-height: 19px;&quot;&gt;&lt;div style=&quot;color: rgb(212, 212, 212); background-color: rgb(30, 30, 30); font-family: var(--code-font), Consolas, &#39;Courier New&#39;, monospace; line-height: 19px;&quot;&gt;&lt;div&gt;&lt;span style=&quot;color: rgb(86, 156, 214);&quot;&gt;type&lt;/span&gt; &lt;span style=&quot;color: rgb(61, 201, 176);&quot;&gt;TupleToTypeOfStringTypeOf&lt;/span&gt;&lt;span style=&quot;color: rgb(220, 220, 220);&quot;&gt;&amp;lt;&lt;/span&gt;&lt;span style=&quot;color: rgb(0, 119, 97); background-color: light-dark(rgb(30, 30, 30), rgb(211, 211, 211)); font-family: var(--code-font), Consolas, &#39;Courier New&#39;, monospace;&quot;&gt;[&#39;red&#39;, &#39;green&#39;]&lt;/span&gt;&lt;span style=&quot;background-color: light-dark(rgb(30, 30, 30), rgb(211, 211, 211)); font-family: var(--code-font), Consolas, &#39;Courier New&#39;, monospace; color: rgb(220, 220, 220);&quot;&gt;&amp;gt;&lt;/span&gt;&lt;span style=&quot;background-color: light-dark(rgb(30, 30, 30), rgb(211, 211, 211)); color: light-dark(rgb(212, 212, 212), rgb(55, 55, 55)); font-family: var(--code-font), Consolas, &#39;Courier New&#39;, monospace;&quot;&gt; &lt;/span&gt;&lt;span style=&quot;background-color: light-dark(rgb(30, 30, 30), rgb(211, 211, 211)); font-family: var(--code-font), Consolas, &#39;Courier New&#39;, monospace; color: rgb(220, 220, 220);&quot;&gt;=&lt;/span&gt;&lt;span style=&quot;background-color: light-dark(rgb(30, 30, 30), rgb(211, 211, 211)); color: light-dark(rgb(212, 212, 212), rgb(55, 55, 55)); font-family: var(--code-font), Consolas, &#39;Courier New&#39;, monospace;&quot;&gt; &lt;/span&gt;&lt;span style=&quot;color: rgb(0, 119, 97); background-color: light-dark(rgb(30, 30, 30), rgb(211, 211, 211)); font-family: var(--code-font), Consolas, &#39;Courier New&#39;, monospace;&quot;&gt;[&#39;red&#39;, &#39;green&#39;]&lt;/span&gt;&lt;span style=&quot;color: light-dark(rgb(212, 212, 212), rgb(55, 55, 55)); font-family: var(--code-font), Consolas, &#39;Courier New&#39;, monospace; background-color: light-dark(rgb(30, 30, 30), rgb(211, 211, 211));&quot;&gt; &lt;/span&gt;&lt;span style=&quot;font-family: var(--code-font), Consolas, &#39;Courier New&#39;, monospace; background-color: light-dark(rgb(30, 30, 30), rgb(211, 211, 211)); color: rgb(86, 156, 214);&quot;&gt;extends&lt;/span&gt;&lt;span style=&quot;color: light-dark(rgb(212, 212, 212), rgb(55, 55, 55)); font-family: var(--code-font), Consolas, &#39;Courier New&#39;, monospace; background-color: light-dark(rgb(30, 30, 30), rgb(211, 211, 211));&quot;&gt; &lt;/span&gt;&lt;span style=&quot;font-family: var(--code-font), Consolas, &#39;Courier New&#39;, monospace; background-color: light-dark(rgb(30, 30, 30), rgb(211, 211, 211)); color: rgb(220, 220, 220);&quot;&gt;[&lt;/span&gt;&lt;span style=&quot;font-family: var(--code-font), Consolas, &#39;Courier New&#39;, monospace; background-color: light-dark(rgb(30, 30, 30), rgb(211, 211, 211)); color: rgb(86, 156, 214);&quot;&gt;infer&lt;/span&gt;&lt;span style=&quot;color: light-dark(rgb(212, 212, 212), rgb(55, 55, 55)); font-family: var(--code-font), Consolas, &#39;Courier New&#39;, monospace; background-color: light-dark(rgb(30, 30, 30), rgb(211, 211, 211));&quot;&gt; firstType&lt;/span&gt;&lt;span style=&quot;font-family: var(--code-font), Consolas, &#39;Courier New&#39;, monospace; background-color: light-dark(rgb(30, 30, 30), rgb(211, 211, 211)); color: rgb(220, 220, 220);&quot;&gt;,&lt;/span&gt;&lt;span style=&quot;color: light-dark(rgb(212, 212, 212), rgb(55, 55, 55)); font-family: var(--code-font), Consolas, &#39;Courier New&#39;, monospace; background-color: light-dark(rgb(30, 30, 30), rgb(211, 211, 211));&quot;&gt; &lt;/span&gt;&lt;span style=&quot;font-family: var(--code-font), Consolas, &#39;Courier New&#39;, monospace; background-color: light-dark(rgb(30, 30, 30), rgb(211, 211, 211)); color: rgb(220, 220, 220);&quot;&gt;...&lt;/span&gt;&lt;span style=&quot;font-family: var(--code-font), Consolas, &#39;Courier New&#39;, monospace; background-color: light-dark(rgb(30, 30, 30), rgb(211, 211, 211)); color: rgb(86, 156, 214);&quot;&gt;infer&lt;/span&gt;&lt;span style=&quot;color: light-dark(rgb(212, 212, 212), rgb(55, 55, 55)); font-family: var(--code-font), Consolas, &#39;Courier New&#39;, monospace; background-color: light-dark(rgb(30, 30, 30), rgb(211, 211, 211));&quot;&gt; rest&lt;/span&gt;&lt;span style=&quot;font-family: var(--code-font), Consolas, &#39;Courier New&#39;, monospace; background-color: light-dark(rgb(30, 30, 30), rgb(211, 211, 211)); color: rgb(220, 220, 220);&quot;&gt;]&lt;/span&gt;&lt;/div&gt;&lt;div&gt;&lt;span style=&quot;color: rgb(220, 220, 220);&quot;&gt;?&lt;/span&gt; &lt;span style=&quot;color: rgb(61, 201, 176);&quot;&gt;IsNonEmptyTuple&lt;/span&gt;&lt;span style=&quot;color: rgb(220, 220, 220);&quot;&gt;&amp;lt;&lt;/span&gt;stringTypeOf&lt;span style=&quot;color: rgb(220, 220, 220);&quot;&gt;&amp;lt;&lt;/span&gt;rest: [&#39;green&#39;]&lt;span style=&quot;color: rgb(220, 220, 220);&quot;&gt;&amp;gt;&amp;gt;&lt;/span&gt; &lt;span style=&quot;color: rgb(86, 156, 214);&quot;&gt;extends&lt;/span&gt; &lt;span style=&quot;color: rgb(86, 156, 214);&quot;&gt;true&lt;/span&gt;&lt;/div&gt;&lt;div&gt;&amp;nbsp; &lt;span style=&quot;color: rgb(220, 220, 220);&quot;&gt;?&lt;/span&gt; &lt;span style=&quot;color: rgb(220, 220, 220);&quot;&gt;[&lt;/span&gt;stringTypeOf&lt;span style=&quot;color: rgb(220, 220, 220);&quot;&gt;&amp;lt;&lt;/span&gt;firstType: &#39;red&#39;&lt;span style=&quot;color: rgb(220, 220, 220);&quot;&gt;&amp;gt;,&lt;/span&gt; &lt;span style=&quot;color: rgb(220, 220, 220);&quot;&gt;...&lt;/span&gt;stringTypeOf&lt;span style=&quot;color: rgb(220, 220, 220);&quot;&gt;&amp;lt;&lt;/span&gt;rest: [&#39;green&#39;]&lt;span style=&quot;color: rgb(220, 220, 220);&quot;&gt;&amp;gt;]&lt;/span&gt;&lt;/div&gt;&lt;div&gt;&amp;nbsp; &lt;span style=&quot;color: rgb(220, 220, 220);&quot;&gt;:&lt;/span&gt; &lt;span style=&quot;color: rgb(220, 220, 220);&quot;&gt;[&lt;/span&gt;stringTypeOf&lt;span style=&quot;color: rgb(220, 220, 220);&quot;&gt;&amp;lt;&lt;/span&gt;firstType: &#39;red&#39;&lt;span style=&quot;color: rgb(220, 220, 220);&quot;&gt;&amp;gt;]&lt;/span&gt;&lt;/div&gt;&lt;div&gt;&lt;span style=&quot;color: rgb(220, 220, 220);&quot;&gt;:&lt;/span&gt; &lt;span style=&quot;color: rgb(86, 156, 214);&quot;&gt;never&lt;/span&gt;&lt;/div&gt;&lt;/div&gt;&lt;/div&gt;&lt;/div&gt;&lt;/div&gt;" style="rounded=0;whiteSpace=wrap;html=1;fillColor=#60a917;fontColor=#ffffff;strokeColor=#2D7600;" vertex="1" parent="1">
          <mxGeometry x="80" y="1320" width="720" height="160" as="geometry" />
        </mxCell>
        <mxCell id="BlTQEWm7-lqljA3Dq1Z--8" value="&lt;div style=&quot;color: rgb(212, 212, 212); background-color: rgb(30, 30, 30); font-family: var(--code-font), Consolas, &#39;Courier New&#39;, monospace; font-size: 14px; line-height: 19px; white-space: pre;&quot;&gt;&lt;div style=&quot;color: rgb(212, 212, 212); background-color: rgb(30, 30, 30); font-family: var(--code-font), Consolas, &#39;Courier New&#39;, monospace; line-height: 19px;&quot;&gt;&lt;div style=&quot;color: rgb(212, 212, 212); background-color: rgb(30, 30, 30); font-family: var(--code-font), Consolas, &#39;Courier New&#39;, monospace; line-height: 19px;&quot;&gt;&lt;div style=&quot;color: rgb(212, 212, 212); background-color: rgb(30, 30, 30); font-family: var(--code-font), Consolas, &#39;Courier New&#39;, monospace; line-height: 19px;&quot;&gt;&lt;span style=&quot;color: rgb(220, 220, 220);&quot;&gt;[&lt;/span&gt;stringTypeOf&lt;span style=&quot;color: rgb(220, 220, 220);&quot;&gt;&amp;lt;&lt;/span&gt;firstType: &#39;red&#39;&lt;span style=&quot;color: rgb(220, 220, 220);&quot;&gt;&amp;gt;,&lt;/span&gt; &lt;span style=&quot;color: rgb(220, 220, 220);&quot;&gt;...&lt;/span&gt;stringTypeOf&lt;span style=&quot;color: rgb(220, 220, 220);&quot;&gt;&amp;lt;&lt;/span&gt;rest: [&#39;green&#39;]&lt;span style=&quot;color: rgb(220, 220, 220);&quot;&gt;&amp;gt;]&lt;/span&gt;&lt;/div&gt;&lt;/div&gt;&lt;/div&gt;&lt;/div&gt;" style="rounded=0;whiteSpace=wrap;html=1;fillColor=#60a917;fontColor=#ffffff;strokeColor=#2D7600;" vertex="1" parent="1">
          <mxGeometry x="80" y="1520" width="720" height="80" as="geometry" />
        </mxCell>
        <mxCell id="BlTQEWm7-lqljA3Dq1Z--9" value="&lt;div style=&quot;color: rgb(212, 212, 212); background-color: rgb(30, 30, 30); font-family: var(--code-font), Consolas, &#39;Courier New&#39;, monospace; font-size: 14px; line-height: 19px; white-space: pre;&quot;&gt;&lt;div style=&quot;color: rgb(212, 212, 212); background-color: rgb(30, 30, 30); font-family: var(--code-font), Consolas, &#39;Courier New&#39;, monospace; line-height: 19px;&quot;&gt;&lt;div style=&quot;color: rgb(212, 212, 212); background-color: rgb(30, 30, 30); font-family: var(--code-font), Consolas, &#39;Courier New&#39;, monospace; line-height: 19px;&quot;&gt;&lt;div style=&quot;color: rgb(212, 212, 212); background-color: rgb(30, 30, 30); font-family: var(--code-font), Consolas, &#39;Courier New&#39;, monospace; line-height: 19px;&quot;&gt;stringTypeOf&lt;span style=&quot;color: rgb(220, 220, 220);&quot;&gt;&amp;lt;&lt;/span&gt;firstType: &#39;red&#39;&lt;span style=&quot;color: rgb(220, 220, 220);&quot;&gt;&amp;gt;&lt;/span&gt;&lt;/div&gt;&lt;/div&gt;&lt;/div&gt;&lt;/div&gt;" style="rounded=0;whiteSpace=wrap;html=1;fillColor=#60a917;fontColor=#ffffff;strokeColor=#2D7600;" vertex="1" parent="1">
          <mxGeometry x="-140" y="1639" width="577" height="80" as="geometry" />
        </mxCell>
        <mxCell id="BlTQEWm7-lqljA3Dq1Z--10" value="&lt;div style=&quot;color: rgb(212, 212, 212); background-color: rgb(30, 30, 30); font-family: var(--code-font), Consolas, &#39;Courier New&#39;, monospace; font-size: 14px; line-height: 19px; white-space: pre;&quot;&gt;&lt;div style=&quot;color: rgb(212, 212, 212); background-color: rgb(30, 30, 30); font-family: var(--code-font), Consolas, &#39;Courier New&#39;, monospace; line-height: 19px;&quot;&gt;&lt;div style=&quot;color: rgb(212, 212, 212); background-color: rgb(30, 30, 30); font-family: var(--code-font), Consolas, &#39;Courier New&#39;, monospace; line-height: 19px;&quot;&gt;&lt;div style=&quot;color: rgb(212, 212, 212); background-color: rgb(30, 30, 30); font-family: var(--code-font), Consolas, &#39;Courier New&#39;, monospace; line-height: 19px;&quot;&gt;stringTypeOf&lt;span style=&quot;color: rgb(220, 220, 220);&quot;&gt;&amp;lt;&lt;/span&gt;rest: [&#39;green&#39;]&lt;span style=&quot;color: rgb(220, 220, 220);&quot;&gt;&amp;gt;&lt;/span&gt;&lt;/div&gt;&lt;/div&gt;&lt;/div&gt;&lt;/div&gt;" style="rounded=0;whiteSpace=wrap;html=1;fillColor=#60a917;fontColor=#ffffff;strokeColor=#2D7600;" vertex="1" parent="1">
          <mxGeometry x="521" y="1639" width="569" height="80" as="geometry" />
        </mxCell>
        <mxCell id="BlTQEWm7-lqljA3Dq1Z--11" value="&lt;div style=&quot;color: rgb(212, 212, 212); background-color: rgb(30, 30, 30); font-family: var(--code-font), Consolas, &#39;Courier New&#39;, monospace; font-size: 14px; line-height: 19px; white-space: pre;&quot;&gt;&lt;div style=&quot;color: rgb(212, 212, 212); background-color: rgb(30, 30, 30); font-family: var(--code-font), Consolas, &#39;Courier New&#39;, monospace; line-height: 19px;&quot;&gt;&lt;div style=&quot;color: rgb(212, 212, 212); background-color: rgb(30, 30, 30); font-family: var(--code-font), Consolas, &#39;Courier New&#39;, monospace; line-height: 19px;&quot;&gt;&lt;div&gt;&lt;span style=&quot;color: rgb(86, 156, 214);&quot;&gt;type&lt;/span&gt; stringTypeOf&lt;span style=&quot;color: rgb(220, 220, 220);&quot;&gt;&amp;lt;&lt;/span&gt;&lt;span style=&quot;font-family: var(--code-font), Consolas, &#39;Courier New&#39;, monospace; color: rgb(206, 145, 120);&quot;&gt;&#39;red&#39;&lt;/span&gt;&lt;span style=&quot;font-family: var(--code-font), Consolas, &#39;Courier New&#39;, monospace; background-color: light-dark(rgb(30, 30, 30), rgb(211, 211, 211)); color: rgb(220, 220, 220);&quot;&gt;&amp;gt;&lt;/span&gt;&lt;span style=&quot;color: light-dark(rgb(212, 212, 212), rgb(55, 55, 55)); font-family: var(--code-font), Consolas, &#39;Courier New&#39;, monospace; background-color: light-dark(rgb(30, 30, 30), rgb(211, 211, 211));&quot;&gt; &lt;/span&gt;&lt;span style=&quot;font-family: var(--code-font), Consolas, &#39;Courier New&#39;, monospace; background-color: light-dark(rgb(30, 30, 30), rgb(211, 211, 211)); color: rgb(220, 220, 220);&quot;&gt;=&lt;/span&gt;&lt;span style=&quot;color: light-dark(rgb(212, 212, 212), rgb(55, 55, 55)); font-family: var(--code-font), Consolas, &#39;Courier New&#39;, monospace; background-color: light-dark(rgb(30, 30, 30), rgb(211, 211, 211));&quot;&gt; &lt;/span&gt;&lt;span style=&quot;font-family: var(--code-font), Consolas, &#39;Courier New&#39;, monospace; background-color: light-dark(rgb(30, 30, 30), rgb(211, 211, 211)); color: rgb(61, 201, 176);&quot;&gt;IsUnion&lt;/span&gt;&lt;span style=&quot;font-family: var(--code-font), Consolas, &#39;Courier New&#39;, monospace; background-color: light-dark(rgb(30, 30, 30), rgb(211, 211, 211)); color: rgb(220, 220, 220);&quot;&gt;&amp;lt;&lt;/span&gt;&lt;span style=&quot;font-family: var(--code-font), Consolas, &#39;Courier New&#39;, monospace; background-color: light-dark(rgb(30, 30, 30), rgb(211, 211, 211)); color: rgb(61, 201, 176);&quot;&gt;T&lt;/span&gt;&lt;span style=&quot;font-family: var(--code-font), Consolas, &#39;Courier New&#39;, monospace; background-color: light-dark(rgb(30, 30, 30), rgb(211, 211, 211)); color: rgb(220, 220, 220);&quot;&gt;&amp;gt;&lt;/span&gt;&lt;span style=&quot;color: light-dark(rgb(212, 212, 212), rgb(55, 55, 55)); font-family: var(--code-font), Consolas, &#39;Courier New&#39;, monospace; background-color: light-dark(rgb(30, 30, 30), rgb(211, 211, 211));&quot;&gt; &lt;/span&gt;&lt;span style=&quot;font-family: var(--code-font), Consolas, &#39;Courier New&#39;, monospace; background-color: light-dark(rgb(30, 30, 30), rgb(211, 211, 211)); color: rgb(86, 156, 214);&quot;&gt;extends&lt;/span&gt;&lt;span style=&quot;color: light-dark(rgb(212, 212, 212), rgb(55, 55, 55)); font-family: var(--code-font), Consolas, &#39;Courier New&#39;, monospace; background-color: light-dark(rgb(30, 30, 30), rgb(211, 211, 211));&quot;&gt; &lt;/span&gt;&lt;span style=&quot;font-family: var(--code-font), Consolas, &#39;Courier New&#39;, monospace; background-color: light-dark(rgb(30, 30, 30), rgb(211, 211, 211)); color: rgb(86, 156, 214);&quot;&gt;true&lt;/span&gt;&lt;/div&gt;&lt;div&gt;&amp;nbsp; &lt;span style=&quot;color: rgb(220, 220, 220);&quot;&gt;?&lt;/span&gt; &lt;span style=&quot;color: rgb(61, 201, 176);&quot;&gt;UnionTostringTypeOf&lt;/span&gt;&lt;span style=&quot;color: rgb(220, 220, 220);&quot;&gt;&amp;lt;&lt;/span&gt;&lt;span style=&quot;color: rgb(61, 201, 176);&quot;&gt;T&lt;/span&gt;&lt;span style=&quot;color: rgb(220, 220, 220);&quot;&gt;&amp;gt;&lt;/span&gt;&lt;/div&gt;&lt;div&gt;&amp;nbsp; &lt;span style=&quot;color: rgb(220, 220, 220);&quot;&gt;:&lt;/span&gt; &lt;span style=&quot;color: rgb(61, 201, 176);&quot;&gt;IsNonEmptyTuple&lt;/span&gt;&lt;span style=&quot;color: rgb(220, 220, 220);&quot;&gt;&amp;lt;&lt;/span&gt;&lt;span style=&quot;color: rgb(61, 201, 176);&quot;&gt;T&lt;/span&gt;&lt;span style=&quot;color: rgb(220, 220, 220);&quot;&gt;&amp;gt;&lt;/span&gt; &lt;span style=&quot;color: rgb(86, 156, 214);&quot;&gt;extends&lt;/span&gt; &lt;span style=&quot;color: rgb(86, 156, 214);&quot;&gt;true&lt;/span&gt;&lt;/div&gt;&lt;div&gt;&amp;nbsp; &lt;span style=&quot;color: rgb(220, 220, 220);&quot;&gt;?&lt;/span&gt; &lt;span style=&quot;color: rgb(61, 201, 176);&quot;&gt;TupleToTypeOfStringTypeOf&lt;/span&gt;&lt;span style=&quot;color: rgb(220, 220, 220);&quot;&gt;&amp;lt;&lt;/span&gt;&lt;span style=&quot;color: rgb(61, 201, 176);&quot;&gt;T&lt;/span&gt;&lt;span style=&quot;color: rgb(220, 220, 220);&quot;&gt;&amp;gt;&lt;/span&gt;&lt;/div&gt;&lt;div&gt;&amp;nbsp; &lt;span style=&quot;color: rgb(220, 220, 220);&quot;&gt;:&lt;/span&gt; &lt;span style=&quot;color: rgb(61, 201, 176);&quot;&gt;T&lt;/span&gt; &lt;span style=&quot;color: rgb(86, 156, 214);&quot;&gt;extends&lt;/span&gt; &lt;span style=&quot;color: rgb(86, 156, 214);&quot;&gt;undefined&lt;/span&gt;&lt;/div&gt;&lt;div&gt;&amp;nbsp; &lt;span style=&quot;color: rgb(220, 220, 220);&quot;&gt;?&lt;/span&gt; &lt;span style=&quot;color: rgb(61, 201, 176);&quot;&gt;Extract&lt;/span&gt;&lt;span style=&quot;color: rgb(220, 220, 220);&quot;&gt;&amp;lt;&lt;/span&gt;typeOfReturn&lt;span style=&quot;color: rgb(220, 220, 220);&quot;&gt;,&lt;/span&gt; &lt;span style=&quot;color: rgb(206, 145, 120);&quot;&gt;&#39;undefined&#39;&lt;/span&gt;&lt;span style=&quot;color: rgb(220, 220, 220);&quot;&gt;&amp;gt;&lt;/span&gt;&lt;/div&gt;&lt;div&gt;&amp;nbsp; &lt;span style=&quot;color: rgb(220, 220, 220);&quot;&gt;:&lt;/span&gt; &lt;span style=&quot;color: rgb(61, 201, 176);&quot;&gt;T&lt;/span&gt; &lt;span style=&quot;color: rgb(86, 156, 214);&quot;&gt;extends&lt;/span&gt; &lt;span style=&quot;color: rgb(86, 156, 214);&quot;&gt;string&lt;/span&gt;&lt;/div&gt;&lt;div&gt;&amp;nbsp; &lt;span style=&quot;color: rgb(220, 220, 220);&quot;&gt;?&lt;/span&gt; &lt;span style=&quot;color: rgb(61, 201, 176);&quot;&gt;StringTostringTypeOf&lt;/span&gt;&lt;span style=&quot;color: rgb(220, 220, 220);&quot;&gt;&amp;lt;&lt;/span&gt;&lt;span style=&quot;color: rgb(61, 201, 176);&quot;&gt;T&lt;/span&gt;&lt;span style=&quot;color: rgb(220, 220, 220);&quot;&gt;&amp;gt;&lt;/span&gt;&lt;/div&gt;&lt;div&gt;&amp;nbsp; &lt;span style=&quot;color: rgb(220, 220, 220);&quot;&gt;:&lt;/span&gt; &lt;span style=&quot;color: rgb(61, 201, 176);&quot;&gt;T&lt;/span&gt; &lt;span style=&quot;color: rgb(86, 156, 214);&quot;&gt;extends&lt;/span&gt; &lt;span style=&quot;color: rgb(86, 156, 214);&quot;&gt;number&lt;/span&gt;&lt;/div&gt;&lt;div&gt;&amp;nbsp; &lt;span style=&quot;color: rgb(220, 220, 220);&quot;&gt;?&lt;/span&gt; &lt;span style=&quot;color: rgb(61, 201, 176);&quot;&gt;NumberTostringTypeOf&lt;/span&gt;&lt;span style=&quot;color: rgb(220, 220, 220);&quot;&gt;&amp;lt;&lt;/span&gt;&lt;span style=&quot;color: rgb(61, 201, 176);&quot;&gt;T&lt;/span&gt;&lt;span style=&quot;color: rgb(220, 220, 220);&quot;&gt;&amp;gt;&lt;/span&gt;&lt;/div&gt;&lt;div&gt;&amp;nbsp; &lt;span style=&quot;color: rgb(220, 220, 220);&quot;&gt;:&lt;/span&gt; &lt;span style=&quot;color: rgb(61, 201, 176);&quot;&gt;T&lt;/span&gt; &lt;span style=&quot;color: rgb(86, 156, 214);&quot;&gt;extends&lt;/span&gt; &lt;span style=&quot;color: rgb(220, 220, 220);&quot;&gt;(...&lt;/span&gt;args&lt;span style=&quot;color: rgb(220, 220, 220);&quot;&gt;:&lt;/span&gt; &lt;span style=&quot;color: rgb(86, 156, 214);&quot;&gt;unknown&lt;/span&gt;&lt;span style=&quot;color: rgb(220, 220, 220);&quot;&gt;[])&lt;/span&gt; &lt;span style=&quot;color: rgb(220, 220, 220);&quot;&gt;=&amp;gt;&lt;/span&gt; &lt;span style=&quot;color: rgb(86, 156, 214);&quot;&gt;unknown&lt;/span&gt;&lt;/div&gt;&lt;div&gt;&amp;nbsp; &lt;span style=&quot;color: rgb(220, 220, 220);&quot;&gt;?&lt;/span&gt; &lt;span style=&quot;color: rgb(61, 201, 176);&quot;&gt;Extract&lt;/span&gt;&lt;span style=&quot;color: rgb(220, 220, 220);&quot;&gt;&amp;lt;&lt;/span&gt;typeOfReturn&lt;span style=&quot;color: rgb(220, 220, 220);&quot;&gt;,&lt;/span&gt; &lt;span style=&quot;color: rgb(206, 145, 120);&quot;&gt;&#39;function&#39;&lt;/span&gt;&lt;span style=&quot;color: rgb(220, 220, 220);&quot;&gt;&amp;gt;&lt;/span&gt;&lt;/div&gt;&lt;div&gt;&amp;nbsp; &lt;span style=&quot;color: rgb(220, 220, 220);&quot;&gt;:&lt;/span&gt; &lt;span style=&quot;color: rgb(61, 201, 176);&quot;&gt;T&lt;/span&gt; &lt;span style=&quot;color: rgb(86, 156, 214);&quot;&gt;extends&lt;/span&gt; &lt;span style=&quot;color: rgb(86, 156, 214);&quot;&gt;boolean&lt;/span&gt;&lt;/div&gt;&lt;div&gt;&amp;nbsp; &lt;span style=&quot;color: rgb(220, 220, 220);&quot;&gt;?&lt;/span&gt; &lt;span style=&quot;color: rgb(61, 201, 176);&quot;&gt;Extract&lt;/span&gt;&lt;span style=&quot;color: rgb(220, 220, 220);&quot;&gt;&amp;lt;&lt;/span&gt;typeOfReturn&lt;span style=&quot;color: rgb(220, 220, 220);&quot;&gt;,&lt;/span&gt; &lt;span style=&quot;color: rgb(206, 145, 120);&quot;&gt;&#39;boolean&#39;&lt;/span&gt;&lt;span style=&quot;color: rgb(220, 220, 220);&quot;&gt;&amp;gt;&lt;/span&gt;&lt;/div&gt;&lt;div&gt;&amp;nbsp; &lt;span style=&quot;color: rgb(220, 220, 220);&quot;&gt;:&lt;/span&gt; &lt;span style=&quot;color: rgb(61, 201, 176);&quot;&gt;T&lt;/span&gt; &lt;span style=&quot;color: rgb(86, 156, 214);&quot;&gt;extends&lt;/span&gt; &lt;span style=&quot;color: rgb(86, 156, 214);&quot;&gt;bigint&lt;/span&gt;&lt;/div&gt;&lt;div&gt;&amp;nbsp; &lt;span style=&quot;color: rgb(220, 220, 220);&quot;&gt;?&lt;/span&gt; &lt;span style=&quot;color: rgb(61, 201, 176);&quot;&gt;Extract&lt;/span&gt;&lt;span style=&quot;color: rgb(220, 220, 220);&quot;&gt;&amp;lt;&lt;/span&gt;typeOfReturn&lt;span style=&quot;color: rgb(220, 220, 220);&quot;&gt;,&lt;/span&gt; &lt;span style=&quot;color: rgb(206, 145, 120);&quot;&gt;&#39;bigint&#39;&lt;/span&gt;&lt;span style=&quot;color: rgb(220, 220, 220);&quot;&gt;&amp;gt;&lt;/span&gt;&lt;/div&gt;&lt;div&gt;&amp;nbsp; &lt;span style=&quot;color: rgb(220, 220, 220);&quot;&gt;:&lt;/span&gt; &lt;span style=&quot;color: rgb(61, 201, 176);&quot;&gt;T&lt;/span&gt; &lt;span style=&quot;color: rgb(86, 156, 214);&quot;&gt;extends&lt;/span&gt; &lt;span style=&quot;color: rgb(86, 156, 214);&quot;&gt;symbol&lt;/span&gt;&lt;/div&gt;&lt;div&gt;&amp;nbsp; &lt;span style=&quot;color: rgb(220, 220, 220);&quot;&gt;?&lt;/span&gt; &lt;span style=&quot;color: rgb(61, 201, 176);&quot;&gt;Extract&lt;/span&gt;&lt;span style=&quot;color: rgb(220, 220, 220);&quot;&gt;&amp;lt;&lt;/span&gt;typeOfReturn&lt;span style=&quot;color: rgb(220, 220, 220);&quot;&gt;,&lt;/span&gt; &lt;span style=&quot;color: rgb(206, 145, 120);&quot;&gt;&#39;symbol&#39;&lt;/span&gt;&lt;span style=&quot;color: rgb(220, 220, 220);&quot;&gt;&amp;gt;&lt;/span&gt;&lt;/div&gt;&lt;div&gt;&amp;nbsp; &lt;span style=&quot;color: rgb(220, 220, 220);&quot;&gt;:&lt;/span&gt; &lt;span style=&quot;color: rgb(61, 201, 176);&quot;&gt;T&lt;/span&gt; &lt;span style=&quot;color: rgb(86, 156, 214);&quot;&gt;extends&lt;/span&gt; &lt;span style=&quot;color: rgb(61, 201, 176);&quot;&gt;RecursiveObject&lt;/span&gt;&lt;/div&gt;&lt;div&gt;&amp;nbsp; &lt;span style=&quot;color: rgb(220, 220, 220);&quot;&gt;?&lt;/span&gt; &lt;span style=&quot;color: rgb(61, 201, 176);&quot;&gt;CreateType&lt;/span&gt;&lt;span style=&quot;color: rgb(220, 220, 220);&quot;&gt;&amp;lt;&lt;/span&gt;&lt;span style=&quot;color: rgb(61, 201, 176);&quot;&gt;T&lt;/span&gt;&lt;span style=&quot;color: rgb(220, 220, 220);&quot;&gt;&amp;gt;&lt;/span&gt;&lt;/div&gt;&lt;div&gt;&amp;nbsp; &lt;span style=&quot;color: rgb(220, 220, 220);&quot;&gt;:&lt;/span&gt; &lt;span style=&quot;color: rgb(61, 201, 176);&quot;&gt;IsArray&lt;/span&gt;&lt;span style=&quot;color: rgb(220, 220, 220);&quot;&gt;&amp;lt;&lt;/span&gt;&lt;span style=&quot;color: rgb(61, 201, 176);&quot;&gt;T&lt;/span&gt;&lt;span style=&quot;color: rgb(220, 220, 220);&quot;&gt;&amp;gt;&lt;/span&gt; &lt;span style=&quot;color: rgb(86, 156, 214);&quot;&gt;extends&lt;/span&gt; &lt;span style=&quot;color: rgb(86, 156, 214);&quot;&gt;true&lt;/span&gt;&lt;/div&gt;&lt;div&gt;&amp;nbsp; &lt;span style=&quot;color: rgb(220, 220, 220);&quot;&gt;?&lt;/span&gt; &lt;span style=&quot;color: rgb(61, 201, 176);&quot;&gt;ArrayToStringTypeOf&lt;/span&gt;&lt;span style=&quot;color: rgb(220, 220, 220);&quot;&gt;&amp;lt;&lt;/span&gt;&lt;span style=&quot;color: rgb(61, 201, 176);&quot;&gt;T&lt;/span&gt;&lt;span style=&quot;color: rgb(220, 220, 220);&quot;&gt;&amp;gt;&lt;/span&gt;&lt;/div&gt;&lt;div&gt;&amp;nbsp; &lt;span style=&quot;color: rgb(220, 220, 220);&quot;&gt;:&lt;/span&gt; &lt;span style=&quot;color: rgb(61, 201, 176);&quot;&gt;Extract&lt;/span&gt;&lt;span style=&quot;color: rgb(220, 220, 220);&quot;&gt;&amp;lt;&lt;/span&gt;typeOfReturn&lt;span style=&quot;color: rgb(220, 220, 220);&quot;&gt;,&lt;/span&gt; &lt;span style=&quot;color: rgb(206, 145, 120);&quot;&gt;&#39;string&#39;&lt;/span&gt;&lt;span style=&quot;color: rgb(220, 220, 220);&quot;&gt;&amp;gt;&lt;/span&gt;&lt;/div&gt;&lt;/div&gt;&lt;/div&gt;&lt;/div&gt;" style="rounded=0;whiteSpace=wrap;html=1;fillColor=#60a917;fontColor=#ffffff;strokeColor=#2D7600;align=left;" vertex="1" parent="1">
          <mxGeometry x="-140" y="1760" width="420" height="520" as="geometry" />
        </mxCell>
        <mxCell id="BlTQEWm7-lqljA3Dq1Z--12" value="&lt;div style=&quot;color: rgb(212, 212, 212); background-color: rgb(30, 30, 30); font-family: var(--code-font), Consolas, &#39;Courier New&#39;, monospace; font-size: 14px; line-height: 19px; white-space: pre;&quot;&gt;&lt;div style=&quot;color: rgb(212, 212, 212); background-color: rgb(30, 30, 30); font-family: var(--code-font), Consolas, &#39;Courier New&#39;, monospace; line-height: 19px;&quot;&gt;&lt;div style=&quot;color: rgb(212, 212, 212); background-color: rgb(30, 30, 30); font-family: var(--code-font), Consolas, &#39;Courier New&#39;, monospace; line-height: 19px;&quot;&gt;&lt;div&gt;&lt;span style=&quot;color: rgb(86, 156, 214);&quot;&gt;type&lt;/span&gt; stringTypeOf&lt;span style=&quot;color: rgb(220, 220, 220);&quot;&gt;&amp;lt;[&lt;/span&gt;&lt;span style=&quot;color: rgb(145, 93, 71); background-color: light-dark(rgb(30, 30, 30), rgb(211, 211, 211)); font-family: var(--code-font), Consolas, &#39;Courier New&#39;, monospace;&quot;&gt;&#39;green&#39;]&lt;/span&gt;&lt;span style=&quot;font-family: var(--code-font), Consolas, &#39;Courier New&#39;, monospace; background-color: light-dark(rgb(30, 30, 30), rgb(211, 211, 211)); color: rgb(220, 220, 220);&quot;&gt;&amp;gt;&lt;/span&gt;&lt;span style=&quot;color: light-dark(rgb(212, 212, 212), rgb(55, 55, 55)); font-family: var(--code-font), Consolas, &#39;Courier New&#39;, monospace; background-color: light-dark(rgb(30, 30, 30), rgb(211, 211, 211));&quot;&gt; &lt;/span&gt;&lt;span style=&quot;font-family: var(--code-font), Consolas, &#39;Courier New&#39;, monospace; background-color: light-dark(rgb(30, 30, 30), rgb(211, 211, 211)); color: rgb(220, 220, 220);&quot;&gt;=&lt;/span&gt;&lt;span style=&quot;color: light-dark(rgb(212, 212, 212), rgb(55, 55, 55)); font-family: var(--code-font), Consolas, &#39;Courier New&#39;, monospace; background-color: light-dark(rgb(30, 30, 30), rgb(211, 211, 211));&quot;&gt; &lt;/span&gt;&lt;span style=&quot;font-family: var(--code-font), Consolas, &#39;Courier New&#39;, monospace; background-color: light-dark(rgb(30, 30, 30), rgb(211, 211, 211)); color: rgb(61, 201, 176);&quot;&gt;IsUnion&lt;/span&gt;&lt;span style=&quot;font-family: var(--code-font), Consolas, &#39;Courier New&#39;, monospace; background-color: light-dark(rgb(30, 30, 30), rgb(211, 211, 211)); color: rgb(220, 220, 220);&quot;&gt;&amp;lt;&lt;/span&gt;&lt;span style=&quot;font-family: var(--code-font), Consolas, &#39;Courier New&#39;, monospace; background-color: light-dark(rgb(30, 30, 30), rgb(211, 211, 211)); color: rgb(61, 201, 176);&quot;&gt;T&lt;/span&gt;&lt;span style=&quot;font-family: var(--code-font), Consolas, &#39;Courier New&#39;, monospace; background-color: light-dark(rgb(30, 30, 30), rgb(211, 211, 211)); color: rgb(220, 220, 220);&quot;&gt;&amp;gt;&lt;/span&gt;&lt;span style=&quot;color: light-dark(rgb(212, 212, 212), rgb(55, 55, 55)); font-family: var(--code-font), Consolas, &#39;Courier New&#39;, monospace; background-color: light-dark(rgb(30, 30, 30), rgb(211, 211, 211));&quot;&gt; &lt;/span&gt;&lt;span style=&quot;font-family: var(--code-font), Consolas, &#39;Courier New&#39;, monospace; background-color: light-dark(rgb(30, 30, 30), rgb(211, 211, 211)); color: rgb(86, 156, 214);&quot;&gt;extends&lt;/span&gt;&lt;span style=&quot;color: light-dark(rgb(212, 212, 212), rgb(55, 55, 55)); font-family: var(--code-font), Consolas, &#39;Courier New&#39;, monospace; background-color: light-dark(rgb(30, 30, 30), rgb(211, 211, 211));&quot;&gt; &lt;/span&gt;&lt;span style=&quot;font-family: var(--code-font), Consolas, &#39;Courier New&#39;, monospace; background-color: light-dark(rgb(30, 30, 30), rgb(211, 211, 211)); color: rgb(86, 156, 214);&quot;&gt;true&lt;/span&gt;&lt;/div&gt;&lt;div&gt;&amp;nbsp; &lt;span style=&quot;color: rgb(220, 220, 220);&quot;&gt;?&lt;/span&gt; &lt;span style=&quot;color: rgb(61, 201, 176);&quot;&gt;UnionTostringTypeOf&lt;/span&gt;&lt;span style=&quot;color: rgb(220, 220, 220);&quot;&gt;&amp;lt;&lt;/span&gt;&lt;span style=&quot;color: rgb(61, 201, 176);&quot;&gt;T&lt;/span&gt;&lt;span style=&quot;color: rgb(220, 220, 220);&quot;&gt;&amp;gt;&lt;/span&gt;&lt;/div&gt;&lt;div&gt;&amp;nbsp; &lt;span style=&quot;color: rgb(220, 220, 220);&quot;&gt;:&lt;/span&gt; &lt;span style=&quot;color: rgb(61, 201, 176);&quot;&gt;IsNonEmptyTuple&lt;/span&gt;&lt;span style=&quot;color: rgb(220, 220, 220);&quot;&gt;&amp;lt;&lt;/span&gt;&lt;span style=&quot;color: rgb(61, 201, 176);&quot;&gt;T&lt;/span&gt;&lt;span style=&quot;color: rgb(220, 220, 220);&quot;&gt;&amp;gt;&lt;/span&gt; &lt;span style=&quot;color: rgb(86, 156, 214);&quot;&gt;extends&lt;/span&gt; &lt;span style=&quot;color: rgb(86, 156, 214);&quot;&gt;true&lt;/span&gt;&lt;/div&gt;&lt;div&gt;&amp;nbsp; &lt;span style=&quot;color: rgb(220, 220, 220);&quot;&gt;?&lt;/span&gt; &lt;span style=&quot;color: rgb(61, 201, 176);&quot;&gt;TupleToTypeOfStringTypeOf&lt;/span&gt;&lt;span style=&quot;color: rgb(220, 220, 220);&quot;&gt;&amp;lt;&lt;/span&gt;&lt;span style=&quot;color: rgb(61, 201, 176);&quot;&gt;T&lt;/span&gt;&lt;span style=&quot;color: rgb(220, 220, 220);&quot;&gt;&amp;gt;&lt;/span&gt;&lt;/div&gt;&lt;div&gt;&amp;nbsp; &lt;span style=&quot;color: rgb(220, 220, 220);&quot;&gt;:&lt;/span&gt; &lt;span style=&quot;color: rgb(61, 201, 176);&quot;&gt;T&lt;/span&gt; &lt;span style=&quot;color: rgb(86, 156, 214);&quot;&gt;extends&lt;/span&gt; &lt;span style=&quot;color: rgb(86, 156, 214);&quot;&gt;undefined&lt;/span&gt;&lt;/div&gt;&lt;div&gt;&amp;nbsp; &lt;span style=&quot;color: rgb(220, 220, 220);&quot;&gt;?&lt;/span&gt; &lt;span style=&quot;color: rgb(61, 201, 176);&quot;&gt;Extract&lt;/span&gt;&lt;span style=&quot;color: rgb(220, 220, 220);&quot;&gt;&amp;lt;&lt;/span&gt;typeOfReturn&lt;span style=&quot;color: rgb(220, 220, 220);&quot;&gt;,&lt;/span&gt; &lt;span style=&quot;color: rgb(206, 145, 120);&quot;&gt;&#39;undefined&#39;&lt;/span&gt;&lt;span style=&quot;color: rgb(220, 220, 220);&quot;&gt;&amp;gt;&lt;/span&gt;&lt;/div&gt;&lt;div&gt;&amp;nbsp; &lt;span style=&quot;color: rgb(220, 220, 220);&quot;&gt;:&lt;/span&gt; &lt;span style=&quot;color: rgb(61, 201, 176);&quot;&gt;T&lt;/span&gt; &lt;span style=&quot;color: rgb(86, 156, 214);&quot;&gt;extends&lt;/span&gt; &lt;span style=&quot;color: rgb(86, 156, 214);&quot;&gt;string&lt;/span&gt;&lt;/div&gt;&lt;div&gt;&amp;nbsp; &lt;span style=&quot;color: rgb(220, 220, 220);&quot;&gt;?&lt;/span&gt; &lt;span style=&quot;color: rgb(61, 201, 176);&quot;&gt;StringTostringTypeOf&lt;/span&gt;&lt;span style=&quot;color: rgb(220, 220, 220);&quot;&gt;&amp;lt;&lt;/span&gt;&lt;span style=&quot;color: rgb(61, 201, 176);&quot;&gt;T&lt;/span&gt;&lt;span style=&quot;color: rgb(220, 220, 220);&quot;&gt;&amp;gt;&lt;/span&gt;&lt;/div&gt;&lt;div&gt;&amp;nbsp; &lt;span style=&quot;color: rgb(220, 220, 220);&quot;&gt;:&lt;/span&gt; &lt;span style=&quot;color: rgb(61, 201, 176);&quot;&gt;T&lt;/span&gt; &lt;span style=&quot;color: rgb(86, 156, 214);&quot;&gt;extends&lt;/span&gt; &lt;span style=&quot;color: rgb(86, 156, 214);&quot;&gt;number&lt;/span&gt;&lt;/div&gt;&lt;div&gt;&amp;nbsp; &lt;span style=&quot;color: rgb(220, 220, 220);&quot;&gt;?&lt;/span&gt; &lt;span style=&quot;color: rgb(61, 201, 176);&quot;&gt;NumberTostringTypeOf&lt;/span&gt;&lt;span style=&quot;color: rgb(220, 220, 220);&quot;&gt;&amp;lt;&lt;/span&gt;&lt;span style=&quot;color: rgb(61, 201, 176);&quot;&gt;T&lt;/span&gt;&lt;span style=&quot;color: rgb(220, 220, 220);&quot;&gt;&amp;gt;&lt;/span&gt;&lt;/div&gt;&lt;div&gt;&amp;nbsp; &lt;span style=&quot;color: rgb(220, 220, 220);&quot;&gt;:&lt;/span&gt; &lt;span style=&quot;color: rgb(61, 201, 176);&quot;&gt;T&lt;/span&gt; &lt;span style=&quot;color: rgb(86, 156, 214);&quot;&gt;extends&lt;/span&gt; &lt;span style=&quot;color: rgb(220, 220, 220);&quot;&gt;(...&lt;/span&gt;args&lt;span style=&quot;color: rgb(220, 220, 220);&quot;&gt;:&lt;/span&gt; &lt;span style=&quot;color: rgb(86, 156, 214);&quot;&gt;unknown&lt;/span&gt;&lt;span style=&quot;color: rgb(220, 220, 220);&quot;&gt;[])&lt;/span&gt; &lt;span style=&quot;color: rgb(220, 220, 220);&quot;&gt;=&amp;gt;&lt;/span&gt; &lt;span style=&quot;color: rgb(86, 156, 214);&quot;&gt;unknown&lt;/span&gt;&lt;/div&gt;&lt;div&gt;&amp;nbsp; &lt;span style=&quot;color: rgb(220, 220, 220);&quot;&gt;?&lt;/span&gt; &lt;span style=&quot;color: rgb(61, 201, 176);&quot;&gt;Extract&lt;/span&gt;&lt;span style=&quot;color: rgb(220, 220, 220);&quot;&gt;&amp;lt;&lt;/span&gt;typeOfReturn&lt;span style=&quot;color: rgb(220, 220, 220);&quot;&gt;,&lt;/span&gt; &lt;span style=&quot;color: rgb(206, 145, 120);&quot;&gt;&#39;function&#39;&lt;/span&gt;&lt;span style=&quot;color: rgb(220, 220, 220);&quot;&gt;&amp;gt;&lt;/span&gt;&lt;/div&gt;&lt;div&gt;&amp;nbsp; &lt;span style=&quot;color: rgb(220, 220, 220);&quot;&gt;:&lt;/span&gt; &lt;span style=&quot;color: rgb(61, 201, 176);&quot;&gt;T&lt;/span&gt; &lt;span style=&quot;color: rgb(86, 156, 214);&quot;&gt;extends&lt;/span&gt; &lt;span style=&quot;color: rgb(86, 156, 214);&quot;&gt;boolean&lt;/span&gt;&lt;/div&gt;&lt;div&gt;&amp;nbsp; &lt;span style=&quot;color: rgb(220, 220, 220);&quot;&gt;?&lt;/span&gt; &lt;span style=&quot;color: rgb(61, 201, 176);&quot;&gt;Extract&lt;/span&gt;&lt;span style=&quot;color: rgb(220, 220, 220);&quot;&gt;&amp;lt;&lt;/span&gt;typeOfReturn&lt;span style=&quot;color: rgb(220, 220, 220);&quot;&gt;,&lt;/span&gt; &lt;span style=&quot;color: rgb(206, 145, 120);&quot;&gt;&#39;boolean&#39;&lt;/span&gt;&lt;span style=&quot;color: rgb(220, 220, 220);&quot;&gt;&amp;gt;&lt;/span&gt;&lt;/div&gt;&lt;div&gt;&amp;nbsp; &lt;span style=&quot;color: rgb(220, 220, 220);&quot;&gt;:&lt;/span&gt; &lt;span style=&quot;color: rgb(61, 201, 176);&quot;&gt;T&lt;/span&gt; &lt;span style=&quot;color: rgb(86, 156, 214);&quot;&gt;extends&lt;/span&gt; &lt;span style=&quot;color: rgb(86, 156, 214);&quot;&gt;bigint&lt;/span&gt;&lt;/div&gt;&lt;div&gt;&amp;nbsp; &lt;span style=&quot;color: rgb(220, 220, 220);&quot;&gt;?&lt;/span&gt; &lt;span style=&quot;color: rgb(61, 201, 176);&quot;&gt;Extract&lt;/span&gt;&lt;span style=&quot;color: rgb(220, 220, 220);&quot;&gt;&amp;lt;&lt;/span&gt;typeOfReturn&lt;span style=&quot;color: rgb(220, 220, 220);&quot;&gt;,&lt;/span&gt; &lt;span style=&quot;color: rgb(206, 145, 120);&quot;&gt;&#39;bigint&#39;&lt;/span&gt;&lt;span style=&quot;color: rgb(220, 220, 220);&quot;&gt;&amp;gt;&lt;/span&gt;&lt;/div&gt;&lt;div&gt;&amp;nbsp; &lt;span style=&quot;color: rgb(220, 220, 220);&quot;&gt;:&lt;/span&gt; &lt;span style=&quot;color: rgb(61, 201, 176);&quot;&gt;T&lt;/span&gt; &lt;span style=&quot;color: rgb(86, 156, 214);&quot;&gt;extends&lt;/span&gt; &lt;span style=&quot;color: rgb(86, 156, 214);&quot;&gt;symbol&lt;/span&gt;&lt;/div&gt;&lt;div&gt;&amp;nbsp; &lt;span style=&quot;color: rgb(220, 220, 220);&quot;&gt;?&lt;/span&gt; &lt;span style=&quot;color: rgb(61, 201, 176);&quot;&gt;Extract&lt;/span&gt;&lt;span style=&quot;color: rgb(220, 220, 220);&quot;&gt;&amp;lt;&lt;/span&gt;typeOfReturn&lt;span style=&quot;color: rgb(220, 220, 220);&quot;&gt;,&lt;/span&gt; &lt;span style=&quot;color: rgb(206, 145, 120);&quot;&gt;&#39;symbol&#39;&lt;/span&gt;&lt;span style=&quot;color: rgb(220, 220, 220);&quot;&gt;&amp;gt;&lt;/span&gt;&lt;/div&gt;&lt;div&gt;&amp;nbsp; &lt;span style=&quot;color: rgb(220, 220, 220);&quot;&gt;:&lt;/span&gt; &lt;span style=&quot;color: rgb(61, 201, 176);&quot;&gt;T&lt;/span&gt; &lt;span style=&quot;color: rgb(86, 156, 214);&quot;&gt;extends&lt;/span&gt; &lt;span style=&quot;color: rgb(61, 201, 176);&quot;&gt;RecursiveObject&lt;/span&gt;&lt;/div&gt;&lt;div&gt;&amp;nbsp; &lt;span style=&quot;color: rgb(220, 220, 220);&quot;&gt;?&lt;/span&gt; &lt;span style=&quot;color: rgb(61, 201, 176);&quot;&gt;CreateType&lt;/span&gt;&lt;span style=&quot;color: rgb(220, 220, 220);&quot;&gt;&amp;lt;&lt;/span&gt;&lt;span style=&quot;color: rgb(61, 201, 176);&quot;&gt;T&lt;/span&gt;&lt;span style=&quot;color: rgb(220, 220, 220);&quot;&gt;&amp;gt;&lt;/span&gt;&lt;/div&gt;&lt;div&gt;&amp;nbsp; &lt;span style=&quot;color: rgb(220, 220, 220);&quot;&gt;:&lt;/span&gt; &lt;span style=&quot;color: rgb(61, 201, 176);&quot;&gt;IsArray&lt;/span&gt;&lt;span style=&quot;color: rgb(220, 220, 220);&quot;&gt;&amp;lt;&lt;/span&gt;&lt;span style=&quot;color: rgb(61, 201, 176);&quot;&gt;T&lt;/span&gt;&lt;span style=&quot;color: rgb(220, 220, 220);&quot;&gt;&amp;gt;&lt;/span&gt; &lt;span style=&quot;color: rgb(86, 156, 214);&quot;&gt;extends&lt;/span&gt; &lt;span style=&quot;color: rgb(86, 156, 214);&quot;&gt;true&lt;/span&gt;&lt;/div&gt;&lt;div&gt;&amp;nbsp; &lt;span style=&quot;color: rgb(220, 220, 220);&quot;&gt;?&lt;/span&gt; &lt;span style=&quot;color: rgb(61, 201, 176);&quot;&gt;ArrayToStringTypeOf&lt;/span&gt;&lt;span style=&quot;color: rgb(220, 220, 220);&quot;&gt;&amp;lt;&lt;/span&gt;&lt;span style=&quot;color: rgb(61, 201, 176);&quot;&gt;T&lt;/span&gt;&lt;span style=&quot;color: rgb(220, 220, 220);&quot;&gt;&amp;gt;&lt;/span&gt;&lt;/div&gt;&lt;div&gt;&amp;nbsp; &lt;span style=&quot;color: rgb(220, 220, 220);&quot;&gt;:&lt;/span&gt; &lt;span style=&quot;color: rgb(61, 201, 176);&quot;&gt;Extract&lt;/span&gt;&lt;span style=&quot;color: rgb(220, 220, 220);&quot;&gt;&amp;lt;&lt;/span&gt;typeOfReturn&lt;span style=&quot;color: rgb(220, 220, 220);&quot;&gt;,&lt;/span&gt; &lt;span style=&quot;color: rgb(206, 145, 120);&quot;&gt;&#39;string&#39;&lt;/span&gt;&lt;span style=&quot;color: rgb(220, 220, 220);&quot;&gt;&amp;gt;&lt;/span&gt;&lt;/div&gt;&lt;/div&gt;&lt;/div&gt;&lt;/div&gt;" style="rounded=0;whiteSpace=wrap;html=1;fillColor=#60a917;fontColor=#ffffff;strokeColor=#2D7600;align=left;" vertex="1" parent="1">
          <mxGeometry x="671" y="1760" width="420" height="520" as="geometry" />
        </mxCell>
        <mxCell id="BlTQEWm7-lqljA3Dq1Z--13" value="&lt;div style=&quot;color: rgb(212, 212, 212); background-color: rgb(30, 30, 30); font-family: var(--code-font), Consolas, &#39;Courier New&#39;, monospace; font-size: 14px; line-height: 19px; white-space: pre;&quot;&gt;&lt;div style=&quot;color: rgb(212, 212, 212); background-color: rgb(30, 30, 30); font-family: var(--code-font), Consolas, &#39;Courier New&#39;, monospace; line-height: 19px;&quot;&gt;&lt;div style=&quot;color: rgb(212, 212, 212); background-color: rgb(30, 30, 30); font-family: var(--code-font), Consolas, &#39;Courier New&#39;, monospace; line-height: 19px;&quot;&gt;&lt;div style=&quot;color: rgb(212, 212, 212); background-color: rgb(30, 30, 30); font-family: var(--code-font), Consolas, &#39;Courier New&#39;, monospace; line-height: 19px;&quot;&gt;&lt;span style=&quot;color: rgb(220, 220, 220);&quot;&gt;&lt;span style=&quot;color: rgb(0, 119, 97); text-align: left; background-color: light-dark(rgb(30, 30, 30), rgb(211, 211, 211)); font-family: var(--code-font), Consolas, &#39;Courier New&#39;, monospace;&quot;&gt;StringTostringTypeOf&lt;/span&gt;&amp;lt;&lt;/span&gt;firstType: &#39;red&#39;&lt;span style=&quot;color: rgb(220, 220, 220);&quot;&gt;&amp;gt;&lt;/span&gt;&lt;/div&gt;&lt;/div&gt;&lt;/div&gt;&lt;/div&gt;" style="rounded=0;whiteSpace=wrap;html=1;fillColor=#60a917;fontColor=#ffffff;strokeColor=#2D7600;" vertex="1" parent="1">
          <mxGeometry x="-100" y="3360" width="577" height="80" as="geometry" />
        </mxCell>
        <mxCell id="BlTQEWm7-lqljA3Dq1Z--14" value="&lt;div style=&quot;background-color: rgb(30, 30, 30); font-family: var(--code-font), Consolas, &#39;Courier New&#39;, monospace; font-size: 14px; line-height: 19px; white-space: pre; color: rgb(212, 212, 212);&quot;&gt;&lt;div style=&quot;background-color: rgb(30, 30, 30); font-family: var(--code-font), Consolas, &#39;Courier New&#39;, monospace; line-height: 19px; color: rgb(212, 212, 212);&quot;&gt;&lt;div style=&quot;background-color: rgb(30, 30, 30); font-family: var(--code-font), Consolas, &#39;Courier New&#39;, monospace; line-height: 19px; color: rgb(212, 212, 212);&quot;&gt;&lt;div style=&quot;background-color: rgb(30, 30, 30); font-family: var(--code-font), Consolas, &#39;Courier New&#39;, monospace; line-height: 19px; color: rgb(212, 212, 212);&quot;&gt;&lt;span style=&quot;color: rgb(61, 201, 176); text-align: left;&quot;&gt;TupleToTypeOfStringTypeOf&lt;/span&gt;&lt;span style=&quot;color: rgb(220, 220, 220); text-align: left;&quot;&gt;&amp;lt;&lt;/span&gt;&lt;span style=&quot;text-align: left; color: rgb(220, 220, 220);&quot;&gt;&lt;font color=&quot;#007761&quot;&gt;[&#39;green&#39;]&lt;/font&gt;&lt;/span&gt;&lt;span style=&quot;color: rgb(220, 220, 220); text-align: left;&quot;&gt;&amp;gt;&lt;/span&gt;&lt;/div&gt;&lt;/div&gt;&lt;/div&gt;&lt;/div&gt;" style="rounded=0;whiteSpace=wrap;html=1;fillColor=#60a917;fontColor=#ffffff;strokeColor=#2D7600;" vertex="1" parent="1">
          <mxGeometry x="520" y="2320" width="570" height="80" as="geometry" />
        </mxCell>
        <mxCell id="BlTQEWm7-lqljA3Dq1Z--15" value="&lt;div style=&quot;background-color: rgb(30, 30, 30); font-family: var(--code-font), Consolas, &#39;Courier New&#39;, monospace; font-size: 14px; line-height: 19px; white-space: pre; color: rgb(212, 212, 212);&quot;&gt;&lt;div style=&quot;background-color: rgb(30, 30, 30); font-family: var(--code-font), Consolas, &#39;Courier New&#39;, monospace; line-height: 19px; color: rgb(212, 212, 212);&quot;&gt;&lt;div style=&quot;background-color: rgb(30, 30, 30); font-family: var(--code-font), Consolas, &#39;Courier New&#39;, monospace; line-height: 19px; color: rgb(212, 212, 212);&quot;&gt;&lt;div style=&quot;background-color: rgb(30, 30, 30); font-family: var(--code-font), Consolas, &#39;Courier New&#39;, monospace; line-height: 19px; color: rgb(212, 212, 212);&quot;&gt;&lt;div style=&quot;background-color: rgb(30, 30, 30); font-family: var(--code-font), Consolas, &#39;Courier New&#39;, monospace; line-height: 19px;&quot;&gt;&lt;div style=&quot;&quot;&gt;&lt;span style=&quot;color: rgb(86, 156, 214);&quot;&gt;type&lt;/span&gt;&lt;font color=&quot;#d4d4d4&quot;&gt; &lt;/font&gt;&lt;span style=&quot;color: rgb(61, 201, 176);&quot;&gt;StringTostringTypeOf&lt;/span&gt;&lt;span style=&quot;color: rgb(220, 220, 220);&quot;&gt;&amp;lt;&lt;/span&gt;&lt;font color=&quot;#3dc9b0&quot;&gt;&#39;red&#39;&lt;/font&gt;&lt;font color=&quot;#d4d4d4&quot;&gt; &lt;/font&gt;&lt;span style=&quot;color: rgb(86, 156, 214);&quot;&gt;extends&lt;/span&gt;&lt;font color=&quot;#d4d4d4&quot;&gt; &lt;/font&gt;&lt;span style=&quot;color: rgb(86, 156, 214);&quot;&gt;string&lt;/span&gt;&lt;span style=&quot;color: rgb(220, 220, 220);&quot;&gt;&amp;gt;&lt;/span&gt;&lt;font color=&quot;#d4d4d4&quot;&gt; &lt;/font&gt;&lt;span style=&quot;color: rgb(220, 220, 220);&quot;&gt;=&lt;/span&gt;&lt;font color=&quot;#d4d4d4&quot;&gt; &lt;/font&gt;&lt;span style=&quot;color: rgb(61, 201, 176);&quot;&gt;IsStringLiteral&lt;/span&gt;&lt;span style=&quot;color: rgb(220, 220, 220);&quot;&gt;&amp;lt;&lt;/span&gt;&lt;span style=&quot;color: rgb(61, 201, 176); font-family: var(--code-font), Consolas, &#39;Courier New&#39;, monospace;&quot;&gt;&#39;red&#39;&lt;/span&gt;&lt;span style=&quot;font-family: var(--code-font), Consolas, &#39;Courier New&#39;, monospace; color: rgb(220, 220, 220);&quot;&gt;&amp;gt;&lt;/span&gt;&lt;font style=&quot;font-family: var(--code-font), Consolas, &#39;Courier New&#39;, monospace;&quot; color=&quot;#d4d4d4&quot;&gt; &lt;/font&gt;&lt;span style=&quot;font-family: var(--code-font), Consolas, &#39;Courier New&#39;, monospace; color: rgb(86, 156, 214);&quot;&gt;extends&lt;/span&gt;&lt;font style=&quot;font-family: var(--code-font), Consolas, &#39;Courier New&#39;, monospace;&quot; color=&quot;#d4d4d4&quot;&gt; &lt;/font&gt;&lt;span style=&quot;font-family: var(--code-font), Consolas, &#39;Courier New&#39;, monospace; color: rgb(86, 156, 214);&quot;&gt;true&lt;/span&gt;&lt;/div&gt;&lt;div style=&quot;color: rgb(212, 212, 212);&quot;&gt;&lt;span style=&quot;color: rgb(220, 220, 220);&quot;&gt;?&lt;/span&gt; &lt;span style=&quot;color: rgb(220, 220, 220);&quot;&gt;[&lt;/span&gt;&lt;span style=&quot;color: rgb(61, 201, 176);&quot;&gt;Extract&lt;/span&gt;&lt;span style=&quot;color: rgb(220, 220, 220);&quot;&gt;&amp;lt;&lt;/span&gt;typeOfReturn&lt;span style=&quot;color: rgb(220, 220, 220);&quot;&gt;,&lt;/span&gt; &lt;span style=&quot;color: rgb(206, 145, 120);&quot;&gt;&#39;string&#39;&lt;/span&gt;&lt;span style=&quot;color: rgb(220, 220, 220);&quot;&gt;&amp;gt;,&lt;/span&gt; &lt;span style=&quot;color: rgb(61, 201, 176); font-family: var(--code-font), Consolas, &#39;Courier New&#39;, monospace;&quot;&gt;&#39;red&#39;&lt;/span&gt;&lt;span style=&quot;color: rgb(220, 220, 220); font-family: var(--code-font), Consolas, &#39;Courier New&#39;, monospace;&quot;&gt;]&lt;/span&gt;&lt;/div&gt;&lt;div style=&quot;color: rgb(212, 212, 212);&quot;&gt;&lt;span style=&quot;color: rgb(220, 220, 220);&quot;&gt;:&lt;/span&gt; [&lt;span style=&quot;color: rgb(61, 201, 176);&quot;&gt;Extract&lt;/span&gt;&lt;span style=&quot;color: rgb(220, 220, 220);&quot;&gt;&amp;lt;&lt;/span&gt;typeOfReturn&lt;span style=&quot;color: rgb(220, 220, 220);&quot;&gt;,&lt;/span&gt; &lt;span style=&quot;color: rgb(206, 145, 120);&quot;&gt;&#39;string&#39;&lt;/span&gt;&lt;span style=&quot;color: rgb(220, 220, 220);&quot;&gt;&amp;gt;]&lt;/span&gt;&lt;/div&gt;&lt;/div&gt;&lt;/div&gt;&lt;/div&gt;&lt;/div&gt;&lt;/div&gt;" style="rounded=0;whiteSpace=wrap;html=1;fillColor=#60a917;fontColor=#ffffff;strokeColor=#2D7600;" vertex="1" parent="1">
          <mxGeometry x="-100" y="3480" width="577" height="80" as="geometry" />
        </mxCell>
        <mxCell id="BlTQEWm7-lqljA3Dq1Z--16" value="&lt;div style=&quot;background-color: rgb(30, 30, 30); font-family: var(--code-font), Consolas, &#39;Courier New&#39;, monospace; font-size: 14px; line-height: 19px; white-space: pre; color: rgb(212, 212, 212);&quot;&gt;&lt;div style=&quot;background-color: rgb(30, 30, 30); font-family: var(--code-font), Consolas, &#39;Courier New&#39;, monospace; line-height: 19px; color: rgb(212, 212, 212);&quot;&gt;&lt;div style=&quot;background-color: rgb(30, 30, 30); font-family: var(--code-font), Consolas, &#39;Courier New&#39;, monospace; line-height: 19px; color: rgb(212, 212, 212);&quot;&gt;&lt;div style=&quot;background-color: rgb(30, 30, 30); font-family: var(--code-font), Consolas, &#39;Courier New&#39;, monospace; line-height: 19px; color: rgb(212, 212, 212);&quot;&gt;&lt;div style=&quot;background-color: rgb(30, 30, 30); font-family: var(--code-font), Consolas, &#39;Courier New&#39;, monospace; line-height: 19px;&quot;&gt;&lt;div style=&quot;&quot;&gt;&lt;span style=&quot;background-color: light-dark(rgb(30, 30, 30), rgb(211, 211, 211)); font-family: var(--code-font), Consolas, &#39;Courier New&#39;, monospace; color: rgb(220, 220, 220);&quot;&gt;[&lt;/span&gt;&lt;span style=&quot;background-color: light-dark(rgb(30, 30, 30), rgb(211, 211, 211)); font-family: var(--code-font), Consolas, &#39;Courier New&#39;, monospace; color: rgb(61, 201, 176);&quot;&gt;Extract&lt;/span&gt;&lt;span style=&quot;background-color: light-dark(rgb(30, 30, 30), rgb(211, 211, 211)); font-family: var(--code-font), Consolas, &#39;Courier New&#39;, monospace; color: rgb(220, 220, 220);&quot;&gt;&amp;lt;&lt;/span&gt;&lt;span style=&quot;color: light-dark(rgb(212, 212, 212), rgb(55, 55, 55)); background-color: light-dark(rgb(30, 30, 30), rgb(211, 211, 211)); font-family: var(--code-font), Consolas, &#39;Courier New&#39;, monospace;&quot;&gt;typeOfReturn&lt;/span&gt;&lt;span style=&quot;background-color: light-dark(rgb(30, 30, 30), rgb(211, 211, 211)); font-family: var(--code-font), Consolas, &#39;Courier New&#39;, monospace; color: rgb(220, 220, 220);&quot;&gt;,&lt;/span&gt;&lt;span style=&quot;color: light-dark(rgb(212, 212, 212), rgb(55, 55, 55)); background-color: light-dark(rgb(30, 30, 30), rgb(211, 211, 211)); font-family: var(--code-font), Consolas, &#39;Courier New&#39;, monospace;&quot;&gt; &lt;/span&gt;&lt;span style=&quot;background-color: light-dark(rgb(30, 30, 30), rgb(211, 211, 211)); font-family: var(--code-font), Consolas, &#39;Courier New&#39;, monospace; color: rgb(206, 145, 120);&quot;&gt;&#39;string&#39;&lt;/span&gt;&lt;span style=&quot;background-color: light-dark(rgb(30, 30, 30), rgb(211, 211, 211)); font-family: var(--code-font), Consolas, &#39;Courier New&#39;, monospace; color: rgb(220, 220, 220);&quot;&gt;&amp;gt;,&lt;/span&gt;&lt;span style=&quot;color: light-dark(rgb(212, 212, 212), rgb(55, 55, 55)); background-color: light-dark(rgb(30, 30, 30), rgb(211, 211, 211)); font-family: var(--code-font), Consolas, &#39;Courier New&#39;, monospace;&quot;&gt; &lt;/span&gt;&lt;span style=&quot;background-color: light-dark(rgb(30, 30, 30), rgb(211, 211, 211)); font-family: var(--code-font), Consolas, &#39;Courier New&#39;, monospace; color: rgb(61, 201, 176);&quot;&gt;&#39;red&#39;&lt;/span&gt;&lt;span style=&quot;background-color: light-dark(rgb(30, 30, 30), rgb(211, 211, 211)); font-family: var(--code-font), Consolas, &#39;Courier New&#39;, monospace; color: rgb(220, 220, 220);&quot;&gt;]&lt;/span&gt;&lt;/div&gt;&lt;/div&gt;&lt;/div&gt;&lt;/div&gt;&lt;/div&gt;&lt;/div&gt;" style="rounded=0;whiteSpace=wrap;html=1;fillColor=#60a917;fontColor=#ffffff;strokeColor=#2D7600;" vertex="1" parent="1">
          <mxGeometry x="-100" y="3600" width="577" height="80" as="geometry" />
        </mxCell>
        <mxCell id="BlTQEWm7-lqljA3Dq1Z--17" value="&lt;div style=&quot;background-color: rgb(30, 30, 30); font-family: var(--code-font), Consolas, &#39;Courier New&#39;, monospace; font-size: 14px; line-height: 19px; white-space: pre; color: rgb(212, 212, 212);&quot;&gt;&lt;div style=&quot;background-color: rgb(30, 30, 30); font-family: var(--code-font), Consolas, &#39;Courier New&#39;, monospace; line-height: 19px; color: rgb(212, 212, 212);&quot;&gt;&lt;div style=&quot;background-color: rgb(30, 30, 30); font-family: var(--code-font), Consolas, &#39;Courier New&#39;, monospace; line-height: 19px; color: rgb(212, 212, 212);&quot;&gt;&lt;div style=&quot;background-color: rgb(30, 30, 30); font-family: var(--code-font), Consolas, &#39;Courier New&#39;, monospace; line-height: 19px; color: rgb(212, 212, 212);&quot;&gt;&lt;div style=&quot;background-color: rgb(30, 30, 30); font-family: var(--code-font), Consolas, &#39;Courier New&#39;, monospace; line-height: 19px;&quot;&gt;&lt;div style=&quot;&quot;&gt;&lt;span style=&quot;background-color: light-dark(rgb(30, 30, 30), rgb(211, 211, 211)); font-family: var(--code-font), Consolas, &#39;Courier New&#39;, monospace; color: rgb(220, 220, 220);&quot;&gt;[&lt;/span&gt;&lt;span style=&quot;color: rgb(145, 93, 71);&quot;&gt;&#39;string&#39;&lt;/span&gt;&lt;span style=&quot;background-color: light-dark(rgb(30, 30, 30), rgb(211, 211, 211)); font-family: var(--code-font), Consolas, &#39;Courier New&#39;, monospace; color: rgb(220, 220, 220);&quot;&gt;,&lt;/span&gt;&lt;span style=&quot;color: light-dark(rgb(212, 212, 212), rgb(55, 55, 55)); background-color: light-dark(rgb(30, 30, 30), rgb(211, 211, 211)); font-family: var(--code-font), Consolas, &#39;Courier New&#39;, monospace;&quot;&gt; &lt;/span&gt;&lt;span style=&quot;background-color: light-dark(rgb(30, 30, 30), rgb(211, 211, 211)); font-family: var(--code-font), Consolas, &#39;Courier New&#39;, monospace; color: rgb(61, 201, 176);&quot;&gt;&#39;red&#39;&lt;/span&gt;&lt;span style=&quot;background-color: light-dark(rgb(30, 30, 30), rgb(211, 211, 211)); font-family: var(--code-font), Consolas, &#39;Courier New&#39;, monospace; color: rgb(220, 220, 220);&quot;&gt;]&lt;/span&gt;&lt;/div&gt;&lt;/div&gt;&lt;/div&gt;&lt;/div&gt;&lt;/div&gt;&lt;/div&gt;" style="rounded=0;whiteSpace=wrap;html=1;fillColor=#60a917;fontColor=#ffffff;strokeColor=#2D7600;" vertex="1" parent="1">
          <mxGeometry x="-100" y="3720" width="577" height="80" as="geometry" />
        </mxCell>
        <mxCell id="BlTQEWm7-lqljA3Dq1Z--18" value="&lt;div style=&quot;background-color: rgb(30, 30, 30); line-height: 19px; color: rgb(212, 212, 212);&quot;&gt;&lt;div style=&quot;background-color: rgb(30, 30, 30); line-height: 19px; color: rgb(212, 212, 212);&quot;&gt;&lt;div style=&quot;background-color: rgb(30, 30, 30); line-height: 19px; color: rgb(212, 212, 212);&quot;&gt;&lt;div style=&quot;background-color: rgb(30, 30, 30); line-height: 19px; color: rgb(212, 212, 212);&quot;&gt;&lt;div style=&quot;background-color: rgb(30, 30, 30); line-height: 19px; color: rgb(212, 212, 212);&quot;&gt;&lt;div style=&quot;&quot;&gt;&lt;div style=&quot;background-color: rgb(30, 30, 30); line-height: 19px;&quot;&gt;&lt;div style=&quot;color: rgb(212, 212, 212); font-family: var(--code-font), Consolas, &#39;Courier New&#39;, monospace; font-size: 14px; white-space: pre;&quot;&gt;&lt;span style=&quot;color: rgb(86, 156, 214);&quot;&gt;type&lt;/span&gt; &lt;span style=&quot;color: rgb(61, 201, 176);&quot;&gt;TupleToTypeOfStringTypeOf&lt;/span&gt;&lt;span style=&quot;color: rgb(220, 220, 220);&quot;&gt;&amp;lt;&lt;/span&gt;&lt;span style=&quot;color: rgb(79, 181, 162);&quot;&gt;[&#39;green&#39;]&lt;/span&gt;&lt;span style=&quot;color: rgb(220, 220, 220);&quot;&gt;&amp;gt;&lt;/span&gt; &lt;span style=&quot;color: rgb(220, 220, 220);&quot;&gt;=&lt;/span&gt; &lt;span style=&quot;color: rgb(79, 181, 162); background-color: light-dark(rgb(30, 30, 30), rgb(211, 211, 211));&quot;&gt;[&#39;green&#39;]&lt;/span&gt;&lt;span style=&quot;color: light-dark(rgb(212, 212, 212), rgb(55, 55, 55)); font-family: var(--code-font), Consolas, &#39;Courier New&#39;, monospace; background-color: light-dark(rgb(30, 30, 30), rgb(211, 211, 211));&quot;&gt; &lt;/span&gt;&lt;span style=&quot;font-family: var(--code-font), Consolas, &#39;Courier New&#39;, monospace; background-color: light-dark(rgb(30, 30, 30), rgb(211, 211, 211)); color: rgb(86, 156, 214);&quot;&gt;extends&lt;/span&gt;&lt;span style=&quot;color: light-dark(rgb(212, 212, 212), rgb(55, 55, 55)); font-family: var(--code-font), Consolas, &#39;Courier New&#39;, monospace; background-color: light-dark(rgb(30, 30, 30), rgb(211, 211, 211));&quot;&gt; &lt;/span&gt;&lt;span style=&quot;font-family: var(--code-font), Consolas, &#39;Courier New&#39;, monospace; background-color: light-dark(rgb(30, 30, 30), rgb(211, 211, 211)); color: rgb(220, 220, 220);&quot;&gt;[&lt;/span&gt;&lt;span style=&quot;font-family: var(--code-font), Consolas, &#39;Courier New&#39;, monospace; background-color: light-dark(rgb(30, 30, 30), rgb(211, 211, 211)); color: rgb(86, 156, 214);&quot;&gt;infer&lt;/span&gt;&lt;span style=&quot;color: light-dark(rgb(212, 212, 212), rgb(55, 55, 55)); font-family: var(--code-font), Consolas, &#39;Courier New&#39;, monospace; background-color: light-dark(rgb(30, 30, 30), rgb(211, 211, 211));&quot;&gt; firstType&lt;/span&gt;&lt;span style=&quot;font-family: var(--code-font), Consolas, &#39;Courier New&#39;, monospace; background-color: light-dark(rgb(30, 30, 30), rgb(211, 211, 211)); color: rgb(220, 220, 220);&quot;&gt;,&lt;/span&gt;&lt;span style=&quot;color: light-dark(rgb(212, 212, 212), rgb(55, 55, 55)); font-family: var(--code-font), Consolas, &#39;Courier New&#39;, monospace; background-color: light-dark(rgb(30, 30, 30), rgb(211, 211, 211));&quot;&gt; &lt;/span&gt;&lt;span style=&quot;font-family: var(--code-font), Consolas, &#39;Courier New&#39;, monospace; background-color: light-dark(rgb(30, 30, 30), rgb(211, 211, 211)); color: rgb(220, 220, 220);&quot;&gt;...&lt;/span&gt;&lt;span style=&quot;font-family: var(--code-font), Consolas, &#39;Courier New&#39;, monospace; background-color: light-dark(rgb(30, 30, 30), rgb(211, 211, 211)); color: rgb(86, 156, 214);&quot;&gt;infer&lt;/span&gt;&lt;span style=&quot;color: light-dark(rgb(212, 212, 212), rgb(55, 55, 55)); font-family: var(--code-font), Consolas, &#39;Courier New&#39;, monospace; background-color: light-dark(rgb(30, 30, 30), rgb(211, 211, 211));&quot;&gt; rest&lt;/span&gt;&lt;span style=&quot;font-family: var(--code-font), Consolas, &#39;Courier New&#39;, monospace; background-color: light-dark(rgb(30, 30, 30), rgb(211, 211, 211)); color: rgb(220, 220, 220);&quot;&gt;]&lt;/span&gt;&lt;/div&gt;&lt;div style=&quot;color: rgb(212, 212, 212); font-family: var(--code-font), Consolas, &#39;Courier New&#39;, monospace; font-size: 14px; white-space: pre;&quot;&gt;&lt;span style=&quot;color: rgb(220, 220, 220);&quot;&gt;?&lt;/span&gt; &lt;span style=&quot;color: rgb(61, 201, 176);&quot;&gt;IsNonEmptyTuple&lt;/span&gt;&lt;span style=&quot;color: rgb(220, 220, 220);&quot;&gt;&amp;lt;&lt;/span&gt;stringTypeOf&lt;span style=&quot;color: rgb(220, 220, 220);&quot;&gt;&amp;lt;&lt;/span&gt;rest: []&lt;span style=&quot;color: rgb(220, 220, 220);&quot;&gt;&amp;gt;&amp;gt;&lt;/span&gt; &lt;span style=&quot;color: rgb(86, 156, 214);&quot;&gt;extends&lt;/span&gt; &lt;span style=&quot;color: rgb(86, 156, 214);&quot;&gt;true&lt;/span&gt;&lt;/div&gt;&lt;div style=&quot;color: rgb(212, 212, 212); font-family: var(--code-font), Consolas, &#39;Courier New&#39;, monospace; font-size: 14px; white-space: pre;&quot;&gt;&amp;nbsp; &lt;span style=&quot;color: rgb(220, 220, 220);&quot;&gt;?&lt;/span&gt; &lt;span style=&quot;color: rgb(220, 220, 220);&quot;&gt;[&lt;/span&gt;stringTypeOf&lt;span style=&quot;color: rgb(220, 220, 220);&quot;&gt;&amp;lt;&lt;/span&gt;firstType: &#39;green&#39;&lt;span style=&quot;color: rgb(220, 220, 220);&quot;&gt;&amp;gt;,&lt;/span&gt; &lt;span style=&quot;color: rgb(220, 220, 220);&quot;&gt;...&lt;/span&gt;stringTypeOf&lt;span style=&quot;color: rgb(220, 220, 220);&quot;&gt;&amp;lt;&lt;/span&gt;rest: []&lt;span style=&quot;color: rgb(220, 220, 220);&quot;&gt;&amp;gt;]&lt;/span&gt;&lt;/div&gt;&lt;div style=&quot;color: rgb(212, 212, 212); font-family: var(--code-font), Consolas, &#39;Courier New&#39;, monospace; font-size: 14px; white-space: pre;&quot;&gt;&amp;nbsp; &lt;span style=&quot;color: rgb(220, 220, 220);&quot;&gt;:&lt;/span&gt; &lt;span style=&quot;color: rgb(220, 220, 220);&quot;&gt;[&lt;/span&gt;stringTypeOf&lt;span style=&quot;color: rgb(220, 220, 220);&quot;&gt;&amp;lt;&lt;/span&gt;firstType: &#39;green&#39;&lt;span style=&quot;color: rgb(220, 220, 220);&quot;&gt;&amp;gt;]&lt;/span&gt;&lt;/div&gt;&lt;div style=&quot;color: rgb(212, 212, 212); font-family: var(--code-font), Consolas, &#39;Courier New&#39;, monospace; font-size: 14px; white-space: pre;&quot;&gt;&lt;span style=&quot;color: rgb(220, 220, 220);&quot;&gt;:&lt;/span&gt; &lt;span style=&quot;color: rgb(86, 156, 214);&quot;&gt;never&lt;/span&gt;&lt;/div&gt;&lt;div style=&quot;&quot;&gt;&lt;font color=&quot;#d4d4d4&quot;&gt;&lt;span style=&quot;font-size: 14px; white-space: pre;&quot;&gt;&lt;br&gt;&lt;/span&gt;&lt;/font&gt;&lt;/div&gt;&lt;/div&gt;&lt;/div&gt;&lt;/div&gt;&lt;/div&gt;&lt;/div&gt;&lt;/div&gt;&lt;/div&gt;" style="rounded=0;whiteSpace=wrap;html=1;fillColor=#60a917;fontColor=#ffffff;strokeColor=#2D7600;align=left;" vertex="1" parent="1">
          <mxGeometry x="521" y="2440" width="570" height="200" as="geometry" />
        </mxCell>
        <mxCell id="BlTQEWm7-lqljA3Dq1Z--19" value="&lt;div style=&quot;background-color: rgb(30, 30, 30); font-family: var(--code-font), Consolas, &#39;Courier New&#39;, monospace; font-size: 14px; line-height: 19px; white-space: pre; color: rgb(212, 212, 212);&quot;&gt;&lt;div style=&quot;background-color: rgb(30, 30, 30); font-family: var(--code-font), Consolas, &#39;Courier New&#39;, monospace; line-height: 19px; color: rgb(212, 212, 212);&quot;&gt;&lt;div style=&quot;background-color: rgb(30, 30, 30); font-family: var(--code-font), Consolas, &#39;Courier New&#39;, monospace; line-height: 19px; color: rgb(212, 212, 212);&quot;&gt;&lt;div style=&quot;background-color: rgb(30, 30, 30); font-family: var(--code-font), Consolas, &#39;Courier New&#39;, monospace; line-height: 19px; color: rgb(212, 212, 212);&quot;&gt;&lt;div style=&quot;background-color: rgb(30, 30, 30); font-family: var(--code-font), Consolas, &#39;Courier New&#39;, monospace; line-height: 19px;&quot;&gt;&lt;div style=&quot;&quot;&gt;&lt;span style=&quot;text-align: left; color: rgb(220, 220, 220);&quot;&gt;[&lt;/span&gt;&lt;span style=&quot;text-align: left;&quot;&gt;stringTypeOf&lt;/span&gt;&lt;span style=&quot;text-align: left; color: rgb(220, 220, 220);&quot;&gt;&amp;lt;&lt;/span&gt;&lt;span style=&quot;text-align: left;&quot;&gt;firstType: &#39;green&#39;&lt;/span&gt;&lt;span style=&quot;text-align: left; color: rgb(220, 220, 220);&quot;&gt;&amp;gt;]&lt;/span&gt;&lt;/div&gt;&lt;/div&gt;&lt;/div&gt;&lt;/div&gt;&lt;/div&gt;&lt;/div&gt;" style="rounded=0;whiteSpace=wrap;html=1;fillColor=#60a917;fontColor=#ffffff;strokeColor=#2D7600;" vertex="1" parent="1">
          <mxGeometry x="520" y="2680" width="577" height="80" as="geometry" />
        </mxCell>
        <mxCell id="BlTQEWm7-lqljA3Dq1Z--20" value="&lt;div style=&quot;color: rgb(212, 212, 212); background-color: rgb(30, 30, 30); font-family: var(--code-font), Consolas, &#39;Courier New&#39;, monospace; font-size: 14px; line-height: 19px; white-space: pre;&quot;&gt;&lt;div style=&quot;color: rgb(212, 212, 212); background-color: rgb(30, 30, 30); font-family: var(--code-font), Consolas, &#39;Courier New&#39;, monospace; line-height: 19px;&quot;&gt;&lt;div style=&quot;color: rgb(212, 212, 212); background-color: rgb(30, 30, 30); font-family: var(--code-font), Consolas, &#39;Courier New&#39;, monospace; line-height: 19px;&quot;&gt;&lt;div&gt;&lt;span style=&quot;color: rgb(86, 156, 214);&quot;&gt;type&lt;/span&gt; stringTypeOf&lt;span style=&quot;color: rgb(220, 220, 220);&quot;&gt;&amp;lt;&lt;/span&gt;&lt;span style=&quot;font-family: var(--code-font), Consolas, &#39;Courier New&#39;, monospace; color: rgb(206, 145, 120);&quot;&gt;&#39;green&#39;&lt;/span&gt;&lt;span style=&quot;font-family: var(--code-font), Consolas, &#39;Courier New&#39;, monospace; background-color: light-dark(rgb(30, 30, 30), rgb(211, 211, 211)); color: rgb(220, 220, 220);&quot;&gt;&amp;gt;&lt;/span&gt;&lt;span style=&quot;color: light-dark(rgb(212, 212, 212), rgb(55, 55, 55)); font-family: var(--code-font), Consolas, &#39;Courier New&#39;, monospace; background-color: light-dark(rgb(30, 30, 30), rgb(211, 211, 211));&quot;&gt; &lt;/span&gt;&lt;span style=&quot;font-family: var(--code-font), Consolas, &#39;Courier New&#39;, monospace; background-color: light-dark(rgb(30, 30, 30), rgb(211, 211, 211)); color: rgb(220, 220, 220);&quot;&gt;=&lt;/span&gt;&lt;span style=&quot;color: light-dark(rgb(212, 212, 212), rgb(55, 55, 55)); font-family: var(--code-font), Consolas, &#39;Courier New&#39;, monospace; background-color: light-dark(rgb(30, 30, 30), rgb(211, 211, 211));&quot;&gt; &lt;/span&gt;&lt;span style=&quot;font-family: var(--code-font), Consolas, &#39;Courier New&#39;, monospace; background-color: light-dark(rgb(30, 30, 30), rgb(211, 211, 211)); color: rgb(61, 201, 176);&quot;&gt;IsUnion&lt;/span&gt;&lt;span style=&quot;font-family: var(--code-font), Consolas, &#39;Courier New&#39;, monospace; background-color: light-dark(rgb(30, 30, 30), rgb(211, 211, 211)); color: rgb(220, 220, 220);&quot;&gt;&amp;lt;&lt;/span&gt;&lt;span style=&quot;font-family: var(--code-font), Consolas, &#39;Courier New&#39;, monospace; background-color: light-dark(rgb(30, 30, 30), rgb(211, 211, 211)); color: rgb(61, 201, 176);&quot;&gt;T&lt;/span&gt;&lt;span style=&quot;font-family: var(--code-font), Consolas, &#39;Courier New&#39;, monospace; background-color: light-dark(rgb(30, 30, 30), rgb(211, 211, 211)); color: rgb(220, 220, 220);&quot;&gt;&amp;gt;&lt;/span&gt;&lt;span style=&quot;color: light-dark(rgb(212, 212, 212), rgb(55, 55, 55)); font-family: var(--code-font), Consolas, &#39;Courier New&#39;, monospace; background-color: light-dark(rgb(30, 30, 30), rgb(211, 211, 211));&quot;&gt; &lt;/span&gt;&lt;span style=&quot;font-family: var(--code-font), Consolas, &#39;Courier New&#39;, monospace; background-color: light-dark(rgb(30, 30, 30), rgb(211, 211, 211)); color: rgb(86, 156, 214);&quot;&gt;extends&lt;/span&gt;&lt;span style=&quot;color: light-dark(rgb(212, 212, 212), rgb(55, 55, 55)); font-family: var(--code-font), Consolas, &#39;Courier New&#39;, monospace; background-color: light-dark(rgb(30, 30, 30), rgb(211, 211, 211));&quot;&gt; &lt;/span&gt;&lt;span style=&quot;font-family: var(--code-font), Consolas, &#39;Courier New&#39;, monospace; background-color: light-dark(rgb(30, 30, 30), rgb(211, 211, 211)); color: rgb(86, 156, 214);&quot;&gt;true&lt;/span&gt;&lt;/div&gt;&lt;div&gt;&amp;nbsp; &lt;span style=&quot;color: rgb(220, 220, 220);&quot;&gt;?&lt;/span&gt; &lt;span style=&quot;color: rgb(61, 201, 176);&quot;&gt;UnionTostringTypeOf&lt;/span&gt;&lt;span style=&quot;color: rgb(220, 220, 220);&quot;&gt;&amp;lt;&lt;/span&gt;&lt;span style=&quot;color: rgb(61, 201, 176);&quot;&gt;T&lt;/span&gt;&lt;span style=&quot;color: rgb(220, 220, 220);&quot;&gt;&amp;gt;&lt;/span&gt;&lt;/div&gt;&lt;div&gt;&amp;nbsp; &lt;span style=&quot;color: rgb(220, 220, 220);&quot;&gt;:&lt;/span&gt; &lt;span style=&quot;color: rgb(61, 201, 176);&quot;&gt;IsNonEmptyTuple&lt;/span&gt;&lt;span style=&quot;color: rgb(220, 220, 220);&quot;&gt;&amp;lt;&lt;/span&gt;&lt;span style=&quot;color: rgb(61, 201, 176);&quot;&gt;T&lt;/span&gt;&lt;span style=&quot;color: rgb(220, 220, 220);&quot;&gt;&amp;gt;&lt;/span&gt; &lt;span style=&quot;color: rgb(86, 156, 214);&quot;&gt;extends&lt;/span&gt; &lt;span style=&quot;color: rgb(86, 156, 214);&quot;&gt;true&lt;/span&gt;&lt;/div&gt;&lt;div&gt;&amp;nbsp; &lt;span style=&quot;color: rgb(220, 220, 220);&quot;&gt;?&lt;/span&gt; &lt;span style=&quot;color: rgb(61, 201, 176);&quot;&gt;TupleToTypeOfStringTypeOf&lt;/span&gt;&lt;span style=&quot;color: rgb(220, 220, 220);&quot;&gt;&amp;lt;&lt;/span&gt;&lt;span style=&quot;color: rgb(61, 201, 176);&quot;&gt;T&lt;/span&gt;&lt;span style=&quot;color: rgb(220, 220, 220);&quot;&gt;&amp;gt;&lt;/span&gt;&lt;/div&gt;&lt;div&gt;&amp;nbsp; &lt;span style=&quot;color: rgb(220, 220, 220);&quot;&gt;:&lt;/span&gt; &lt;span style=&quot;color: rgb(61, 201, 176);&quot;&gt;T&lt;/span&gt; &lt;span style=&quot;color: rgb(86, 156, 214);&quot;&gt;extends&lt;/span&gt; &lt;span style=&quot;color: rgb(86, 156, 214);&quot;&gt;undefined&lt;/span&gt;&lt;/div&gt;&lt;div&gt;&amp;nbsp; &lt;span style=&quot;color: rgb(220, 220, 220);&quot;&gt;?&lt;/span&gt; &lt;span style=&quot;color: rgb(61, 201, 176);&quot;&gt;Extract&lt;/span&gt;&lt;span style=&quot;color: rgb(220, 220, 220);&quot;&gt;&amp;lt;&lt;/span&gt;typeOfReturn&lt;span style=&quot;color: rgb(220, 220, 220);&quot;&gt;,&lt;/span&gt; &lt;span style=&quot;color: rgb(206, 145, 120);&quot;&gt;&#39;undefined&#39;&lt;/span&gt;&lt;span style=&quot;color: rgb(220, 220, 220);&quot;&gt;&amp;gt;&lt;/span&gt;&lt;/div&gt;&lt;div&gt;&amp;nbsp; &lt;span style=&quot;color: rgb(220, 220, 220);&quot;&gt;:&lt;/span&gt; &lt;span style=&quot;color: rgb(61, 201, 176);&quot;&gt;T&lt;/span&gt; &lt;span style=&quot;color: rgb(86, 156, 214);&quot;&gt;extends&lt;/span&gt; &lt;span style=&quot;color: rgb(86, 156, 214);&quot;&gt;string&lt;/span&gt;&lt;/div&gt;&lt;div&gt;&amp;nbsp; &lt;span style=&quot;color: rgb(220, 220, 220);&quot;&gt;?&lt;/span&gt; &lt;span style=&quot;color: rgb(61, 201, 176);&quot;&gt;StringTostringTypeOf&lt;/span&gt;&lt;span style=&quot;color: rgb(220, 220, 220);&quot;&gt;&amp;lt;&lt;/span&gt;&lt;span style=&quot;color: rgb(61, 201, 176);&quot;&gt;T&lt;/span&gt;&lt;span style=&quot;color: rgb(220, 220, 220);&quot;&gt;&amp;gt;&lt;/span&gt;&lt;/div&gt;&lt;div&gt;&amp;nbsp; &lt;span style=&quot;color: rgb(220, 220, 220);&quot;&gt;:&lt;/span&gt; &lt;span style=&quot;color: rgb(61, 201, 176);&quot;&gt;T&lt;/span&gt; &lt;span style=&quot;color: rgb(86, 156, 214);&quot;&gt;extends&lt;/span&gt; &lt;span style=&quot;color: rgb(86, 156, 214);&quot;&gt;number&lt;/span&gt;&lt;/div&gt;&lt;div&gt;&amp;nbsp; &lt;span style=&quot;color: rgb(220, 220, 220);&quot;&gt;?&lt;/span&gt; &lt;span style=&quot;color: rgb(61, 201, 176);&quot;&gt;NumberTostringTypeOf&lt;/span&gt;&lt;span style=&quot;color: rgb(220, 220, 220);&quot;&gt;&amp;lt;&lt;/span&gt;&lt;span style=&quot;color: rgb(61, 201, 176);&quot;&gt;T&lt;/span&gt;&lt;span style=&quot;color: rgb(220, 220, 220);&quot;&gt;&amp;gt;&lt;/span&gt;&lt;/div&gt;&lt;div&gt;&amp;nbsp; &lt;span style=&quot;color: rgb(220, 220, 220);&quot;&gt;:&lt;/span&gt; &lt;span style=&quot;color: rgb(61, 201, 176);&quot;&gt;T&lt;/span&gt; &lt;span style=&quot;color: rgb(86, 156, 214);&quot;&gt;extends&lt;/span&gt; &lt;span style=&quot;color: rgb(220, 220, 220);&quot;&gt;(...&lt;/span&gt;args&lt;span style=&quot;color: rgb(220, 220, 220);&quot;&gt;:&lt;/span&gt; &lt;span style=&quot;color: rgb(86, 156, 214);&quot;&gt;unknown&lt;/span&gt;&lt;span style=&quot;color: rgb(220, 220, 220);&quot;&gt;[])&lt;/span&gt; &lt;span style=&quot;color: rgb(220, 220, 220);&quot;&gt;=&amp;gt;&lt;/span&gt; &lt;span style=&quot;color: rgb(86, 156, 214);&quot;&gt;unknown&lt;/span&gt;&lt;/div&gt;&lt;div&gt;&amp;nbsp; &lt;span style=&quot;color: rgb(220, 220, 220);&quot;&gt;?&lt;/span&gt; &lt;span style=&quot;color: rgb(61, 201, 176);&quot;&gt;Extract&lt;/span&gt;&lt;span style=&quot;color: rgb(220, 220, 220);&quot;&gt;&amp;lt;&lt;/span&gt;typeOfReturn&lt;span style=&quot;color: rgb(220, 220, 220);&quot;&gt;,&lt;/span&gt; &lt;span style=&quot;color: rgb(206, 145, 120);&quot;&gt;&#39;function&#39;&lt;/span&gt;&lt;span style=&quot;color: rgb(220, 220, 220);&quot;&gt;&amp;gt;&lt;/span&gt;&lt;/div&gt;&lt;div&gt;&amp;nbsp; &lt;span style=&quot;color: rgb(220, 220, 220);&quot;&gt;:&lt;/span&gt; &lt;span style=&quot;color: rgb(61, 201, 176);&quot;&gt;T&lt;/span&gt; &lt;span style=&quot;color: rgb(86, 156, 214);&quot;&gt;extends&lt;/span&gt; &lt;span style=&quot;color: rgb(86, 156, 214);&quot;&gt;boolean&lt;/span&gt;&lt;/div&gt;&lt;div&gt;&amp;nbsp; &lt;span style=&quot;color: rgb(220, 220, 220);&quot;&gt;?&lt;/span&gt; &lt;span style=&quot;color: rgb(61, 201, 176);&quot;&gt;Extract&lt;/span&gt;&lt;span style=&quot;color: rgb(220, 220, 220);&quot;&gt;&amp;lt;&lt;/span&gt;typeOfReturn&lt;span style=&quot;color: rgb(220, 220, 220);&quot;&gt;,&lt;/span&gt; &lt;span style=&quot;color: rgb(206, 145, 120);&quot;&gt;&#39;boolean&#39;&lt;/span&gt;&lt;span style=&quot;color: rgb(220, 220, 220);&quot;&gt;&amp;gt;&lt;/span&gt;&lt;/div&gt;&lt;div&gt;&amp;nbsp; &lt;span style=&quot;color: rgb(220, 220, 220);&quot;&gt;:&lt;/span&gt; &lt;span style=&quot;color: rgb(61, 201, 176);&quot;&gt;T&lt;/span&gt; &lt;span style=&quot;color: rgb(86, 156, 214);&quot;&gt;extends&lt;/span&gt; &lt;span style=&quot;color: rgb(86, 156, 214);&quot;&gt;bigint&lt;/span&gt;&lt;/div&gt;&lt;div&gt;&amp;nbsp; &lt;span style=&quot;color: rgb(220, 220, 220);&quot;&gt;?&lt;/span&gt; &lt;span style=&quot;color: rgb(61, 201, 176);&quot;&gt;Extract&lt;/span&gt;&lt;span style=&quot;color: rgb(220, 220, 220);&quot;&gt;&amp;lt;&lt;/span&gt;typeOfReturn&lt;span style=&quot;color: rgb(220, 220, 220);&quot;&gt;,&lt;/span&gt; &lt;span style=&quot;color: rgb(206, 145, 120);&quot;&gt;&#39;bigint&#39;&lt;/span&gt;&lt;span style=&quot;color: rgb(220, 220, 220);&quot;&gt;&amp;gt;&lt;/span&gt;&lt;/div&gt;&lt;div&gt;&amp;nbsp; &lt;span style=&quot;color: rgb(220, 220, 220);&quot;&gt;:&lt;/span&gt; &lt;span style=&quot;color: rgb(61, 201, 176);&quot;&gt;T&lt;/span&gt; &lt;span style=&quot;color: rgb(86, 156, 214);&quot;&gt;extends&lt;/span&gt; &lt;span style=&quot;color: rgb(86, 156, 214);&quot;&gt;symbol&lt;/span&gt;&lt;/div&gt;&lt;div&gt;&amp;nbsp; &lt;span style=&quot;color: rgb(220, 220, 220);&quot;&gt;?&lt;/span&gt; &lt;span style=&quot;color: rgb(61, 201, 176);&quot;&gt;Extract&lt;/span&gt;&lt;span style=&quot;color: rgb(220, 220, 220);&quot;&gt;&amp;lt;&lt;/span&gt;typeOfReturn&lt;span style=&quot;color: rgb(220, 220, 220);&quot;&gt;,&lt;/span&gt; &lt;span style=&quot;color: rgb(206, 145, 120);&quot;&gt;&#39;symbol&#39;&lt;/span&gt;&lt;span style=&quot;color: rgb(220, 220, 220);&quot;&gt;&amp;gt;&lt;/span&gt;&lt;/div&gt;&lt;div&gt;&amp;nbsp; &lt;span style=&quot;color: rgb(220, 220, 220);&quot;&gt;:&lt;/span&gt; &lt;span style=&quot;color: rgb(61, 201, 176);&quot;&gt;T&lt;/span&gt; &lt;span style=&quot;color: rgb(86, 156, 214);&quot;&gt;extends&lt;/span&gt; &lt;span style=&quot;color: rgb(61, 201, 176);&quot;&gt;RecursiveObject&lt;/span&gt;&lt;/div&gt;&lt;div&gt;&amp;nbsp; &lt;span style=&quot;color: rgb(220, 220, 220);&quot;&gt;?&lt;/span&gt; &lt;span style=&quot;color: rgb(61, 201, 176);&quot;&gt;CreateType&lt;/span&gt;&lt;span style=&quot;color: rgb(220, 220, 220);&quot;&gt;&amp;lt;&lt;/span&gt;&lt;span style=&quot;color: rgb(61, 201, 176);&quot;&gt;T&lt;/span&gt;&lt;span style=&quot;color: rgb(220, 220, 220);&quot;&gt;&amp;gt;&lt;/span&gt;&lt;/div&gt;&lt;div&gt;&amp;nbsp; &lt;span style=&quot;color: rgb(220, 220, 220);&quot;&gt;:&lt;/span&gt; &lt;span style=&quot;color: rgb(61, 201, 176);&quot;&gt;IsArray&lt;/span&gt;&lt;span style=&quot;color: rgb(220, 220, 220);&quot;&gt;&amp;lt;&lt;/span&gt;&lt;span style=&quot;color: rgb(61, 201, 176);&quot;&gt;T&lt;/span&gt;&lt;span style=&quot;color: rgb(220, 220, 220);&quot;&gt;&amp;gt;&lt;/span&gt; &lt;span style=&quot;color: rgb(86, 156, 214);&quot;&gt;extends&lt;/span&gt; &lt;span style=&quot;color: rgb(86, 156, 214);&quot;&gt;true&lt;/span&gt;&lt;/div&gt;&lt;div&gt;&amp;nbsp; &lt;span style=&quot;color: rgb(220, 220, 220);&quot;&gt;?&lt;/span&gt; &lt;span style=&quot;color: rgb(61, 201, 176);&quot;&gt;ArrayToStringTypeOf&lt;/span&gt;&lt;span style=&quot;color: rgb(220, 220, 220);&quot;&gt;&amp;lt;&lt;/span&gt;&lt;span style=&quot;color: rgb(61, 201, 176);&quot;&gt;T&lt;/span&gt;&lt;span style=&quot;color: rgb(220, 220, 220);&quot;&gt;&amp;gt;&lt;/span&gt;&lt;/div&gt;&lt;div&gt;&amp;nbsp; &lt;span style=&quot;color: rgb(220, 220, 220);&quot;&gt;:&lt;/span&gt; &lt;span style=&quot;color: rgb(61, 201, 176);&quot;&gt;Extract&lt;/span&gt;&lt;span style=&quot;color: rgb(220, 220, 220);&quot;&gt;&amp;lt;&lt;/span&gt;typeOfReturn&lt;span style=&quot;color: rgb(220, 220, 220);&quot;&gt;,&lt;/span&gt; &lt;span style=&quot;color: rgb(206, 145, 120);&quot;&gt;&#39;string&#39;&lt;/span&gt;&lt;span style=&quot;color: rgb(220, 220, 220);&quot;&gt;&amp;gt;&lt;/span&gt;&lt;/div&gt;&lt;/div&gt;&lt;/div&gt;&lt;/div&gt;" style="rounded=0;whiteSpace=wrap;html=1;fillColor=#60a917;fontColor=#ffffff;strokeColor=#2D7600;align=left;" vertex="1" parent="1">
          <mxGeometry x="677" y="2790" width="420" height="520" as="geometry" />
        </mxCell>
        <mxCell id="BlTQEWm7-lqljA3Dq1Z--21" value="&lt;div style=&quot;color: rgb(212, 212, 212); background-color: rgb(30, 30, 30); font-family: var(--code-font), Consolas, &#39;Courier New&#39;, monospace; font-size: 14px; line-height: 19px; white-space: pre;&quot;&gt;&lt;div style=&quot;color: rgb(212, 212, 212); background-color: rgb(30, 30, 30); font-family: var(--code-font), Consolas, &#39;Courier New&#39;, monospace; line-height: 19px;&quot;&gt;&lt;div style=&quot;color: rgb(212, 212, 212); background-color: rgb(30, 30, 30); font-family: var(--code-font), Consolas, &#39;Courier New&#39;, monospace; line-height: 19px;&quot;&gt;&lt;div style=&quot;color: rgb(212, 212, 212); background-color: rgb(30, 30, 30); font-family: var(--code-font), Consolas, &#39;Courier New&#39;, monospace; line-height: 19px;&quot;&gt;&lt;span style=&quot;color: rgb(220, 220, 220);&quot;&gt;&lt;span style=&quot;color: rgb(0, 119, 97); text-align: left; background-color: light-dark(rgb(30, 30, 30), rgb(211, 211, 211)); font-family: var(--code-font), Consolas, &#39;Courier New&#39;, monospace;&quot;&gt;StringTostringTypeOf&lt;/span&gt;&amp;lt;&lt;/span&gt;firstType: &#39;green&#39;&lt;span style=&quot;color: rgb(220, 220, 220);&quot;&gt;&amp;gt;&lt;/span&gt;&lt;/div&gt;&lt;/div&gt;&lt;/div&gt;&lt;/div&gt;" style="rounded=0;whiteSpace=wrap;html=1;fillColor=#60a917;fontColor=#ffffff;strokeColor=#2D7600;" vertex="1" parent="1">
          <mxGeometry x="520" y="3360" width="577" height="80" as="geometry" />
        </mxCell>
        <mxCell id="BlTQEWm7-lqljA3Dq1Z--22" value="&lt;div style=&quot;background-color: rgb(30, 30, 30); font-family: var(--code-font), Consolas, &#39;Courier New&#39;, monospace; font-size: 14px; line-height: 19px; white-space: pre; color: rgb(212, 212, 212);&quot;&gt;&lt;div style=&quot;background-color: rgb(30, 30, 30); font-family: var(--code-font), Consolas, &#39;Courier New&#39;, monospace; line-height: 19px; color: rgb(212, 212, 212);&quot;&gt;&lt;div style=&quot;background-color: rgb(30, 30, 30); font-family: var(--code-font), Consolas, &#39;Courier New&#39;, monospace; line-height: 19px; color: rgb(212, 212, 212);&quot;&gt;&lt;div style=&quot;background-color: rgb(30, 30, 30); font-family: var(--code-font), Consolas, &#39;Courier New&#39;, monospace; line-height: 19px; color: rgb(212, 212, 212);&quot;&gt;&lt;div style=&quot;background-color: rgb(30, 30, 30); font-family: var(--code-font), Consolas, &#39;Courier New&#39;, monospace; line-height: 19px;&quot;&gt;&lt;div style=&quot;&quot;&gt;&lt;span style=&quot;color: rgb(86, 156, 214);&quot;&gt;type&lt;/span&gt;&lt;font color=&quot;#d4d4d4&quot;&gt; &lt;/font&gt;&lt;span style=&quot;color: rgb(61, 201, 176);&quot;&gt;StringTostringTypeOf&lt;/span&gt;&lt;span style=&quot;color: rgb(220, 220, 220);&quot;&gt;&amp;lt;&lt;/span&gt;&lt;font color=&quot;#3dc9b0&quot;&gt;&#39;&lt;span style=&quot;color: rgb(55, 55, 55);&quot;&gt;green&lt;/span&gt;&#39;&lt;/font&gt;&lt;font color=&quot;#d4d4d4&quot;&gt; &lt;/font&gt;&lt;span style=&quot;color: rgb(86, 156, 214);&quot;&gt;extends&lt;/span&gt;&lt;font color=&quot;#d4d4d4&quot;&gt; &lt;/font&gt;&lt;span style=&quot;color: rgb(86, 156, 214);&quot;&gt;string&lt;/span&gt;&lt;span style=&quot;color: rgb(220, 220, 220);&quot;&gt;&amp;gt;&lt;/span&gt;&lt;font color=&quot;#d4d4d4&quot;&gt; &lt;/font&gt;&lt;span style=&quot;color: rgb(220, 220, 220);&quot;&gt;=&lt;/span&gt;&lt;font color=&quot;#d4d4d4&quot;&gt; &lt;/font&gt;&lt;span style=&quot;color: rgb(61, 201, 176);&quot;&gt;IsStringLiteral&lt;/span&gt;&lt;span style=&quot;color: rgb(220, 220, 220);&quot;&gt;&amp;lt;&lt;/span&gt;&lt;span style=&quot;color: rgb(61, 201, 176); font-family: var(--code-font), Consolas, &#39;Courier New&#39;, monospace;&quot;&gt;&#39;&lt;span style=&quot;color: rgb(55, 55, 55);&quot;&gt;green&lt;/span&gt;&#39;&lt;/span&gt;&lt;span style=&quot;font-family: var(--code-font), Consolas, &#39;Courier New&#39;, monospace; color: rgb(220, 220, 220);&quot;&gt;&amp;gt;&lt;/span&gt;&lt;font style=&quot;font-family: var(--code-font), Consolas, &#39;Courier New&#39;, monospace;&quot; color=&quot;#d4d4d4&quot;&gt; &lt;/font&gt;&lt;span style=&quot;font-family: var(--code-font), Consolas, &#39;Courier New&#39;, monospace; color: rgb(86, 156, 214);&quot;&gt;extends&lt;/span&gt;&lt;font style=&quot;font-family: var(--code-font), Consolas, &#39;Courier New&#39;, monospace;&quot; color=&quot;#d4d4d4&quot;&gt; &lt;/font&gt;&lt;span style=&quot;font-family: var(--code-font), Consolas, &#39;Courier New&#39;, monospace; color: rgb(86, 156, 214);&quot;&gt;true&lt;/span&gt;&lt;/div&gt;&lt;div style=&quot;color: rgb(212, 212, 212);&quot;&gt;&lt;span style=&quot;color: rgb(220, 220, 220);&quot;&gt;?&lt;/span&gt; &lt;span style=&quot;color: rgb(220, 220, 220);&quot;&gt;[&lt;/span&gt;&lt;span style=&quot;color: rgb(61, 201, 176);&quot;&gt;Extract&lt;/span&gt;&lt;span style=&quot;color: rgb(220, 220, 220);&quot;&gt;&amp;lt;&lt;/span&gt;typeOfReturn&lt;span style=&quot;color: rgb(220, 220, 220);&quot;&gt;,&lt;/span&gt; &lt;span style=&quot;color: rgb(206, 145, 120);&quot;&gt;&#39;string&#39;&lt;/span&gt;&lt;span style=&quot;color: rgb(220, 220, 220);&quot;&gt;&amp;gt;,&lt;/span&gt; &lt;span style=&quot;color: rgb(61, 201, 176); font-family: var(--code-font), Consolas, &#39;Courier New&#39;, monospace;&quot;&gt;&#39;&lt;span style=&quot;color: rgb(55, 55, 55);&quot;&gt;green&lt;/span&gt;&#39;&lt;/span&gt;&lt;span style=&quot;color: rgb(220, 220, 220); font-family: var(--code-font), Consolas, &#39;Courier New&#39;, monospace;&quot;&gt;]&lt;/span&gt;&lt;/div&gt;&lt;div style=&quot;color: rgb(212, 212, 212);&quot;&gt;&lt;span style=&quot;color: rgb(220, 220, 220);&quot;&gt;:&lt;/span&gt; [&lt;span style=&quot;color: rgb(61, 201, 176);&quot;&gt;Extract&lt;/span&gt;&lt;span style=&quot;color: rgb(220, 220, 220);&quot;&gt;&amp;lt;&lt;/span&gt;typeOfReturn&lt;span style=&quot;color: rgb(220, 220, 220);&quot;&gt;,&lt;/span&gt; &lt;span style=&quot;color: rgb(206, 145, 120);&quot;&gt;&#39;string&#39;&lt;/span&gt;&lt;span style=&quot;color: rgb(220, 220, 220);&quot;&gt;&amp;gt;]&lt;/span&gt;&lt;/div&gt;&lt;/div&gt;&lt;/div&gt;&lt;/div&gt;&lt;/div&gt;&lt;/div&gt;" style="rounded=0;whiteSpace=wrap;html=1;fillColor=#60a917;fontColor=#ffffff;strokeColor=#2D7600;" vertex="1" parent="1">
          <mxGeometry x="523" y="3480" width="577" height="80" as="geometry" />
        </mxCell>
        <mxCell id="BlTQEWm7-lqljA3Dq1Z--23" value="&lt;div style=&quot;background-color: rgb(30, 30, 30); font-family: var(--code-font), Consolas, &#39;Courier New&#39;, monospace; font-size: 14px; line-height: 19px; white-space: pre; color: rgb(212, 212, 212);&quot;&gt;&lt;div style=&quot;background-color: rgb(30, 30, 30); font-family: var(--code-font), Consolas, &#39;Courier New&#39;, monospace; line-height: 19px; color: rgb(212, 212, 212);&quot;&gt;&lt;div style=&quot;background-color: rgb(30, 30, 30); font-family: var(--code-font), Consolas, &#39;Courier New&#39;, monospace; line-height: 19px; color: rgb(212, 212, 212);&quot;&gt;&lt;div style=&quot;background-color: rgb(30, 30, 30); font-family: var(--code-font), Consolas, &#39;Courier New&#39;, monospace; line-height: 19px; color: rgb(212, 212, 212);&quot;&gt;&lt;div style=&quot;background-color: rgb(30, 30, 30); font-family: var(--code-font), Consolas, &#39;Courier New&#39;, monospace; line-height: 19px;&quot;&gt;&lt;div style=&quot;&quot;&gt;&lt;span style=&quot;background-color: light-dark(rgb(30, 30, 30), rgb(211, 211, 211)); font-family: var(--code-font), Consolas, &#39;Courier New&#39;, monospace; color: rgb(220, 220, 220);&quot;&gt;[&lt;/span&gt;&lt;span style=&quot;background-color: light-dark(rgb(30, 30, 30), rgb(211, 211, 211)); font-family: var(--code-font), Consolas, &#39;Courier New&#39;, monospace; color: rgb(61, 201, 176);&quot;&gt;Extract&lt;/span&gt;&lt;span style=&quot;background-color: light-dark(rgb(30, 30, 30), rgb(211, 211, 211)); font-family: var(--code-font), Consolas, &#39;Courier New&#39;, monospace; color: rgb(220, 220, 220);&quot;&gt;&amp;lt;&lt;/span&gt;&lt;span style=&quot;color: light-dark(rgb(212, 212, 212), rgb(55, 55, 55)); background-color: light-dark(rgb(30, 30, 30), rgb(211, 211, 211)); font-family: var(--code-font), Consolas, &#39;Courier New&#39;, monospace;&quot;&gt;typeOfReturn&lt;/span&gt;&lt;span style=&quot;background-color: light-dark(rgb(30, 30, 30), rgb(211, 211, 211)); font-family: var(--code-font), Consolas, &#39;Courier New&#39;, monospace; color: rgb(220, 220, 220);&quot;&gt;,&lt;/span&gt;&lt;span style=&quot;color: light-dark(rgb(212, 212, 212), rgb(55, 55, 55)); background-color: light-dark(rgb(30, 30, 30), rgb(211, 211, 211)); font-family: var(--code-font), Consolas, &#39;Courier New&#39;, monospace;&quot;&gt; &lt;/span&gt;&lt;span style=&quot;background-color: light-dark(rgb(30, 30, 30), rgb(211, 211, 211)); font-family: var(--code-font), Consolas, &#39;Courier New&#39;, monospace; color: rgb(206, 145, 120);&quot;&gt;&#39;string&#39;&lt;/span&gt;&lt;span style=&quot;background-color: light-dark(rgb(30, 30, 30), rgb(211, 211, 211)); font-family: var(--code-font), Consolas, &#39;Courier New&#39;, monospace; color: rgb(220, 220, 220);&quot;&gt;&amp;gt;,&lt;/span&gt;&lt;span style=&quot;color: light-dark(rgb(212, 212, 212), rgb(55, 55, 55)); background-color: light-dark(rgb(30, 30, 30), rgb(211, 211, 211)); font-family: var(--code-font), Consolas, &#39;Courier New&#39;, monospace;&quot;&gt; &lt;/span&gt;&lt;span style=&quot;background-color: light-dark(rgb(30, 30, 30), rgb(211, 211, 211)); font-family: var(--code-font), Consolas, &#39;Courier New&#39;, monospace; color: rgb(61, 201, 176);&quot;&gt;&#39;&lt;span style=&quot;color: rgb(55, 55, 55);&quot;&gt;green&lt;/span&gt;&#39;&lt;/span&gt;&lt;span style=&quot;background-color: light-dark(rgb(30, 30, 30), rgb(211, 211, 211)); font-family: var(--code-font), Consolas, &#39;Courier New&#39;, monospace; color: rgb(220, 220, 220);&quot;&gt;]&lt;/span&gt;&lt;/div&gt;&lt;/div&gt;&lt;/div&gt;&lt;/div&gt;&lt;/div&gt;&lt;/div&gt;" style="rounded=0;whiteSpace=wrap;html=1;fillColor=#60a917;fontColor=#ffffff;strokeColor=#2D7600;" vertex="1" parent="1">
          <mxGeometry x="523" y="3600" width="577" height="80" as="geometry" />
        </mxCell>
        <mxCell id="BlTQEWm7-lqljA3Dq1Z--24" value="&lt;div style=&quot;background-color: rgb(30, 30, 30); font-family: var(--code-font), Consolas, &#39;Courier New&#39;, monospace; font-size: 14px; line-height: 19px; white-space: pre; color: rgb(212, 212, 212);&quot;&gt;&lt;div style=&quot;background-color: rgb(30, 30, 30); font-family: var(--code-font), Consolas, &#39;Courier New&#39;, monospace; line-height: 19px; color: rgb(212, 212, 212);&quot;&gt;&lt;div style=&quot;background-color: rgb(30, 30, 30); font-family: var(--code-font), Consolas, &#39;Courier New&#39;, monospace; line-height: 19px; color: rgb(212, 212, 212);&quot;&gt;&lt;div style=&quot;background-color: rgb(30, 30, 30); font-family: var(--code-font), Consolas, &#39;Courier New&#39;, monospace; line-height: 19px; color: rgb(212, 212, 212);&quot;&gt;&lt;div style=&quot;background-color: rgb(30, 30, 30); font-family: var(--code-font), Consolas, &#39;Courier New&#39;, monospace; line-height: 19px;&quot;&gt;&lt;div style=&quot;&quot;&gt;&lt;span style=&quot;background-color: light-dark(rgb(30, 30, 30), rgb(211, 211, 211)); font-family: var(--code-font), Consolas, &#39;Courier New&#39;, monospace; color: rgb(220, 220, 220);&quot;&gt;[[&lt;/span&gt;&lt;span style=&quot;color: rgb(145, 93, 71);&quot;&gt;&#39;string&#39;&lt;/span&gt;&lt;span style=&quot;background-color: light-dark(rgb(30, 30, 30), rgb(211, 211, 211)); font-family: var(--code-font), Consolas, &#39;Courier New&#39;, monospace; color: rgb(220, 220, 220);&quot;&gt;,&lt;/span&gt;&lt;span style=&quot;color: light-dark(rgb(212, 212, 212), rgb(55, 55, 55)); background-color: light-dark(rgb(30, 30, 30), rgb(211, 211, 211)); font-family: var(--code-font), Consolas, &#39;Courier New&#39;, monospace;&quot;&gt; &lt;/span&gt;&lt;span style=&quot;background-color: light-dark(rgb(30, 30, 30), rgb(211, 211, 211)); font-family: var(--code-font), Consolas, &#39;Courier New&#39;, monospace; color: rgb(61, 201, 176);&quot;&gt;&#39;&lt;span style=&quot;color: rgb(55, 55, 55);&quot;&gt;green&lt;/span&gt;&#39;&lt;/span&gt;&lt;span style=&quot;background-color: light-dark(rgb(30, 30, 30), rgb(211, 211, 211)); font-family: var(--code-font), Consolas, &#39;Courier New&#39;, monospace; color: rgb(220, 220, 220);&quot;&gt;]]&lt;/span&gt;&lt;/div&gt;&lt;/div&gt;&lt;/div&gt;&lt;/div&gt;&lt;/div&gt;&lt;/div&gt;" style="rounded=0;whiteSpace=wrap;html=1;fillColor=#60a917;fontColor=#ffffff;strokeColor=#2D7600;" vertex="1" parent="1">
          <mxGeometry x="520" y="3720" width="577" height="80" as="geometry" />
        </mxCell>
        <mxCell id="BlTQEWm7-lqljA3Dq1Z--27" value="&lt;div style=&quot;color: rgb(212, 212, 212); background-color: rgb(30, 30, 30); font-family: var(--code-font), Consolas, &#39;Courier New&#39;, monospace; font-size: 14px; line-height: 19px; white-space: pre;&quot;&gt;&lt;div style=&quot;color: rgb(212, 212, 212); background-color: rgb(30, 30, 30); font-family: var(--code-font), Consolas, &#39;Courier New&#39;, monospace; line-height: 19px;&quot;&gt;&lt;div style=&quot;color: rgb(212, 212, 212); background-color: rgb(30, 30, 30); font-family: var(--code-font), Consolas, &#39;Courier New&#39;, monospace; line-height: 19px;&quot;&gt;&lt;div style=&quot;color: rgb(212, 212, 212); background-color: rgb(30, 30, 30); font-family: var(--code-font), Consolas, &#39;Courier New&#39;, monospace; line-height: 19px;&quot;&gt;&lt;span style=&quot;color: rgb(220, 220, 220);&quot;&gt;[&lt;/span&gt;&lt;span style=&quot;background-color: light-dark(rgb(30, 30, 30), rgb(211, 211, 211)); font-family: var(--code-font), Consolas, &#39;Courier New&#39;, monospace; color: rgb(220, 220, 220);&quot;&gt;[&lt;/span&gt;&lt;span style=&quot;font-family: var(--code-font), Consolas, &#39;Courier New&#39;, monospace; color: rgb(145, 93, 71);&quot;&gt;&#39;string&#39;&lt;/span&gt;&lt;span style=&quot;background-color: light-dark(rgb(30, 30, 30), rgb(211, 211, 211)); font-family: var(--code-font), Consolas, &#39;Courier New&#39;, monospace; color: rgb(220, 220, 220);&quot;&gt;,&lt;/span&gt;&lt;span style=&quot;background-color: light-dark(rgb(30, 30, 30), rgb(211, 211, 211)); color: light-dark(rgb(212, 212, 212), rgb(55, 55, 55)); font-family: var(--code-font), Consolas, &#39;Courier New&#39;, monospace;&quot;&gt; &lt;/span&gt;&lt;span style=&quot;background-color: light-dark(rgb(30, 30, 30), rgb(211, 211, 211)); font-family: var(--code-font), Consolas, &#39;Courier New&#39;, monospace; color: rgb(61, 201, 176);&quot;&gt;&#39;red&#39;&lt;/span&gt;&lt;span style=&quot;background-color: light-dark(rgb(30, 30, 30), rgb(211, 211, 211)); font-family: var(--code-font), Consolas, &#39;Courier New&#39;, monospace; color: rgb(220, 220, 220);&quot;&gt;]&lt;/span&gt;&lt;span style=&quot;font-family: var(--code-font), Consolas, &#39;Courier New&#39;, monospace; color: rgb(220, 220, 220);&quot;&gt;,&lt;/span&gt;&lt;span style=&quot;background-color: light-dark(rgb(30, 30, 30), rgb(211, 211, 211)); color: light-dark(rgb(212, 212, 212), rgb(55, 55, 55)); font-family: var(--code-font), Consolas, &#39;Courier New&#39;, monospace;&quot;&gt; &lt;/span&gt;&lt;span style=&quot;font-family: var(--code-font), Consolas, &#39;Courier New&#39;, monospace; color: rgb(220, 220, 220);&quot;&gt;...&lt;/span&gt;&lt;span style=&quot;background-color: light-dark(rgb(30, 30, 30), rgb(211, 211, 211)); font-family: var(--code-font), Consolas, &#39;Courier New&#39;, monospace; color: rgb(220, 220, 220);&quot;&gt;[[&lt;/span&gt;&lt;span style=&quot;font-family: var(--code-font), Consolas, &#39;Courier New&#39;, monospace; color: rgb(145, 93, 71);&quot;&gt;&#39;string&#39;&lt;/span&gt;&lt;span style=&quot;background-color: light-dark(rgb(30, 30, 30), rgb(211, 211, 211)); font-family: var(--code-font), Consolas, &#39;Courier New&#39;, monospace; color: rgb(220, 220, 220);&quot;&gt;,&lt;/span&gt;&lt;span style=&quot;background-color: light-dark(rgb(30, 30, 30), rgb(211, 211, 211)); color: light-dark(rgb(212, 212, 212), rgb(55, 55, 55)); font-family: var(--code-font), Consolas, &#39;Courier New&#39;, monospace;&quot;&gt; &lt;/span&gt;&lt;span style=&quot;background-color: light-dark(rgb(30, 30, 30), rgb(211, 211, 211)); font-family: var(--code-font), Consolas, &#39;Courier New&#39;, monospace; color: rgb(61, 201, 176);&quot;&gt;&#39;&lt;span style=&quot;color: rgb(55, 55, 55);&quot;&gt;green&lt;/span&gt;&#39;&lt;/span&gt;&lt;span style=&quot;background-color: light-dark(rgb(30, 30, 30), rgb(211, 211, 211)); font-family: var(--code-font), Consolas, &#39;Courier New&#39;, monospace; color: rgb(220, 220, 220);&quot;&gt;]]&lt;/span&gt;&lt;span style=&quot;color: light-dark(rgb(220, 220, 220), rgb(48, 48, 48)); font-family: var(--code-font), Consolas, &#39;Courier New&#39;, monospace; background-color: light-dark(rgb(30, 30, 30), rgb(211, 211, 211));&quot;&gt;]&lt;/span&gt;&lt;/div&gt;&lt;/div&gt;&lt;/div&gt;&lt;/div&gt;" style="rounded=0;whiteSpace=wrap;html=1;fillColor=#60a917;fontColor=#ffffff;strokeColor=#2D7600;" vertex="1" parent="1">
          <mxGeometry x="140" y="3840" width="720" height="80" as="geometry" />
        </mxCell>
        <mxCell id="BlTQEWm7-lqljA3Dq1Z--28" value="&lt;div style=&quot;color: rgb(212, 212, 212); background-color: rgb(30, 30, 30); font-family: var(--code-font), Consolas, &#39;Courier New&#39;, monospace; font-size: 14px; line-height: 19px; white-space: pre;&quot;&gt;&lt;div style=&quot;color: rgb(212, 212, 212); background-color: rgb(30, 30, 30); font-family: var(--code-font), Consolas, &#39;Courier New&#39;, monospace; line-height: 19px;&quot;&gt;&lt;div style=&quot;color: rgb(212, 212, 212); background-color: rgb(30, 30, 30); font-family: var(--code-font), Consolas, &#39;Courier New&#39;, monospace; line-height: 19px;&quot;&gt;&lt;div style=&quot;color: rgb(212, 212, 212); background-color: rgb(30, 30, 30); font-family: var(--code-font), Consolas, &#39;Courier New&#39;, monospace; line-height: 19px;&quot;&gt;&lt;span style=&quot;color: rgb(220, 220, 220);&quot;&gt;[&lt;/span&gt;&lt;span style=&quot;background-color: light-dark(rgb(30, 30, 30), rgb(211, 211, 211)); color: rgb(220, 220, 220);&quot;&gt;[&lt;/span&gt;&lt;span style=&quot;color: rgb(145, 93, 71);&quot;&gt;&#39;string&#39;&lt;/span&gt;&lt;span style=&quot;background-color: light-dark(rgb(30, 30, 30), rgb(211, 211, 211)); color: rgb(220, 220, 220);&quot;&gt;,&lt;/span&gt;&lt;span style=&quot;color: light-dark(rgb(212, 212, 212), rgb(55, 55, 55)); background-color: light-dark(rgb(30, 30, 30), rgb(211, 211, 211));&quot;&gt; &lt;/span&gt;&lt;span style=&quot;background-color: light-dark(rgb(30, 30, 30), rgb(211, 211, 211)); color: rgb(61, 201, 176);&quot;&gt;&#39;red&#39;&lt;/span&gt;&lt;span style=&quot;background-color: light-dark(rgb(30, 30, 30), rgb(211, 211, 211)); color: rgb(220, 220, 220);&quot;&gt;]&lt;/span&gt;&lt;span style=&quot;color: rgb(220, 220, 220);&quot;&gt;,&lt;/span&gt;&lt;span style=&quot;color: light-dark(rgb(212, 212, 212), rgb(55, 55, 55)); background-color: light-dark(rgb(30, 30, 30), rgb(211, 211, 211));&quot;&gt; &lt;/span&gt;&lt;span style=&quot;background-color: light-dark(rgb(30, 30, 30), rgb(211, 211, 211)); color: rgb(220, 220, 220);&quot;&gt;[&lt;/span&gt;&lt;span style=&quot;color: rgb(145, 93, 71);&quot;&gt;&#39;string&#39;&lt;/span&gt;&lt;span style=&quot;background-color: light-dark(rgb(30, 30, 30), rgb(211, 211, 211)); color: rgb(220, 220, 220);&quot;&gt;,&lt;/span&gt;&lt;span style=&quot;color: light-dark(rgb(212, 212, 212), rgb(55, 55, 55)); background-color: light-dark(rgb(30, 30, 30), rgb(211, 211, 211));&quot;&gt; &lt;/span&gt;&lt;span style=&quot;background-color: light-dark(rgb(30, 30, 30), rgb(211, 211, 211)); color: rgb(61, 201, 176);&quot;&gt;&#39;&lt;span style=&quot;color: rgb(55, 55, 55);&quot;&gt;green&lt;/span&gt;&#39;&lt;/span&gt;&lt;span style=&quot;background-color: light-dark(rgb(30, 30, 30), rgb(211, 211, 211)); color: rgb(220, 220, 220);&quot;&gt;]&lt;/span&gt;&lt;span style=&quot;background-color: light-dark(rgb(30, 30, 30), rgb(211, 211, 211)); color: light-dark(rgb(220, 220, 220), rgb(48, 48, 48));&quot;&gt;]&lt;/span&gt;&lt;/div&gt;&lt;/div&gt;&lt;/div&gt;&lt;/div&gt;" style="rounded=0;whiteSpace=wrap;html=1;fillColor=#60a917;fontColor=#ffffff;strokeColor=#2D7600;" vertex="1" parent="1">
          <mxGeometry x="140" y="3960" width="720" height="80" as="geometry" />
        </mxCell>
      </root>
    </mxGraphModel>
  </diagram>
</mxfile>
